<?xml version="1.0" standalone="no"?>
<!DOCTYPE svg PUBLIC "-//W3C//DTD SVG 20010904//EN"
 "http://www.w3.org/TR/2001/REC-SVG-20010904/DTD/svg10.dtd">
<svg version="1.0" xmlns="http://www.w3.org/2000/svg"
 width="1280.000000pt" height="1056.000000pt" viewBox="0 0 1280.000000 1056.000000"
 preserveAspectRatio="xMidYMid meet">
<metadata>
Created by potrace 1.15, written by Peter Selinger 2001-2017
</metadata>
<g transform="translate(0.000000,1056.000000) scale(0.100000,-0.100000)"
fill="#000000" stroke="none">
<path d="M9575 8523 c-561 -972 -1020 -1774 -1019 -1782 0 -9 453 -800 1007
-1758 554 -959 1007 -1747 1007 -1751 0 -12 -678 -417 -686 -410 -1 2 39 143
90 313 51 171 90 313 87 317 -8 9 -674 208 -679 203 -2 -2 -49 -155 -104 -341
-64 -215 -96 -339 -89 -343 5 -4 147 -47 315 -96 168 -50 306 -92 306 -95 0
-23 -1421 -773 -1436 -758 -2 2 40 145 92 317 53 171 94 314 91 317 -11 11
-672 212 -678 206 -9 -11 -211 -673 -206 -678 2 -2 130 -43 283 -90 153 -46
294 -90 313 -96 l35 -11 -60 -30 c-309 -157 -1347 -578 -1369 -556 -2 2 54
139 125 304 70 165 125 303 121 307 -15 15 -646 277 -652 270 -5 -5 -198 -452
-275 -638 -3 -7 116 -63 296 -139 165 -71 297 -132 293 -136 -11 -10 -196 -67
-437 -134 -389 -108 -757 -175 -1148 -209 -32 -2 -58 -4 -58 -2 0 1 104 105
230 231 127 126 230 234 230 240 0 5 -113 123 -250 260 l-250 250 -252 -253
-253 -252 240 -241 240 -241 -235 5 c-328 8 -540 41 -800 123 -151 48 -256 94
-385 170 -117 68 -151 91 -144 98 2 2 145 50 317 106 186 61 312 107 312 114
0 12 -208 654 -216 668 -3 5 -563 -176 -671 -216 -7 -3 22 -107 88 -308 54
-167 97 -307 96 -312 -4 -14 -180 136 -298 253 -231 232 -438 502 -655 854
-51 83 -92 152 -91 154 2 1 149 -26 327 -61 179 -35 328 -61 332 -57 8 7 142
690 137 695 -11 10 -693 136 -699 129 -4 -4 -33 -143 -64 -308 -32 -165 -60
-309 -63 -319 -4 -15 -12 -7 -39 40 -68 118 -244 474 -339 683 -109 241 -298
702 -290 709 2 3 127 -48 277 -113 150 -65 287 -124 304 -131 l32 -13 136 317
c74 174 137 323 138 330 4 15 -641 297 -652 285 -4 -4 -62 -138 -130 -298 -68
-159 -126 -294 -130 -298 -16 -18 -272 725 -420 1221 -45 150 -80 275 -78 277
2 2 118 -84 257 -191 140 -107 257 -194 260 -194 10 1 426 549 426 562 0 6
-125 107 -278 224 l-279 213 -22 -27 c-12 -15 -105 -135 -206 -267 -171 -223
-197 -255 -210 -255 -3 1 -126 94 -275 209 -250 193 -271 207 -286 192 -32
-32 -412 -535 -413 -546 -1 -15 545 -436 559 -432 5 2 100 122 210 266 l200
262 23 -78 c136 -456 311 -992 436 -1332 25 -68 45 -125 43 -126 -1 -2 -137
55 -302 126 -164 71 -303 125 -307 121 -9 -9 -278 -632 -278 -643 0 -8 629
-279 646 -279 6 0 69 135 140 299 71 165 130 298 132 296 2 -2 43 -101 91
-222 49 -120 119 -288 156 -373 73 -170 306 -646 380 -779 44 -78 45 -83 23
-78 -64 16 -598 117 -616 117 -17 0 -23 -10 -31 -52 -32 -156 -121 -621 -121
-632 0 -19 689 -154 699 -138 4 6 33 151 66 322 33 170 63 306 67 302 3 -4 37
-56 73 -117 148 -244 326 -492 489 -681 112 -131 325 -338 423 -414 40 -30 72
-58 73 -61 0 -4 -139 -52 -310 -108 -170 -56 -311 -105 -313 -109 -7 -14 216
-672 228 -672 12 0 653 208 666 216 4 2 -38 139 -93 305 -54 166 -97 303 -95
305 2 3 42 -19 88 -47 227 -142 527 -245 853 -294 134 -20 403 -37 519 -33 53
1 97 3 97 3 -3 0 -459 -472 -460 -475 0 -3 113 -118 250 -255 l250 -250 255
255 255 255 -236 236 -236 236 93 7 c226 17 513 63 803 127 164 37 631 166
735 203 24 9 46 14 48 12 2 -2 -52 -136 -121 -298 -68 -162 -126 -299 -128
-306 -3 -14 643 -295 653 -284 16 16 278 647 271 653 -4 3 -133 59 -287 124
-154 65 -288 122 -299 127 -15 8 30 28 220 97 345 126 733 288 1097 460 82 38
107 46 103 33 -80 -256 -186 -610 -186 -619 0 -7 21 -19 48 -26 26 -8 174 -54
330 -102 155 -47 287 -85 293 -83 10 3 222 669 215 676 -2 1 -142 45 -312 98
-170 53 -311 97 -313 99 -2 2 115 63 260 136 301 150 622 320 949 502 124 69
226 125 227 123 1 -1 -40 -143 -91 -316 -52 -173 -91 -318 -87 -321 10 -11
660 -201 672 -197 15 5 212 669 202 678 -4 4 -143 47 -308 95 -165 49 -306 91
-313 95 -7 3 104 75 265 170 153 90 316 186 363 214 l85 51 352 610 c194 335
654 1132 1022 1770 607 1050 669 1161 657 1180 -12 19 -626 1082 -1609 2785
-233 404 -430 736 -438 738 -9 1 -372 -618 -1034 -1765z m1010 -1750 c-3 -10
-211 -13 -991 -13 -785 0 -985 3 -981 13 5 14 1932 3351 1956 3387 15 23 16
-95 19 -1675 1 -935 0 -1706 -3 -1712z m390 2822 c180 -313 620 -1075 977
-1692 356 -618 648 -1127 648 -1133 0 -7 -326 -9 -982 -8 l-983 3 -3 1710 c-1
940 2 1705 6 1700 5 -6 157 -266 337 -580z m-385 -4580 c0 -938 -3 -1705 -7
-1705 -6 0 -1958 3369 -1971 3402 -2 4 442 8 987 8 l991 0 0 -1705z m1971
1623 c-54 -93 -1108 -1918 -1601 -2773 -177 -308 -324 -562 -326 -564 -2 -2
-4 766 -4 1707 l0 1712 990 0 990 0 -49 -82z m-10730 -442 c143 -109 259 -204
257 -211 -6 -25 -393 -524 -405 -522 -7 1 -130 91 -273 200 -180 138 -258 203
-252 212 23 40 398 524 405 522 4 -1 125 -92 268 -201z m-984 -133 c139 -107
254 -197 257 -201 4 -7 -123 -179 -341 -459 l-63 -82 -266 204 c-146 112 -265
206 -266 210 0 4 91 125 202 271 127 166 206 261 213 257 7 -4 125 -94 264
-200z m1706 -1433 c8 -7 -234 -592 -254 -614 -7 -8 -590 235 -613 256 -6 4 45
134 123 317 l132 309 302 -130 c166 -71 306 -133 310 -138z m-921 -383 c-2
-13 -251 -598 -257 -605 -3 -3 -614 255 -622 263 -2 1 51 127 118 281 66 153
127 293 134 311 l13 31 309 -133 c220 -95 307 -137 305 -148z m8086 -708 c169
-50 311 -95 315 -99 11 -9 -174 -631 -190 -637 -12 -5 -624 174 -634 185 -8 9
182 642 193 642 4 0 147 -41 316 -91z m-6864 -189 c170 -32 310 -61 311 -62 5
-5 -121 -648 -128 -655 -6 -6 -647 114 -656 123 -3 3 24 153 59 334 60 312 65
329 84 325 12 -3 160 -32 330 -65z m-843 -551 c173 -33 318 -64 322 -68 8 -8
-110 -640 -122 -653 -6 -6 -646 114 -656 124 -4 4 109 607 120 646 3 6 8 12
13 12 5 0 150 -27 323 -61z m6204 -55 c171 -53 313 -99 316 -102 6 -7 -181
-626 -192 -637 -5 -4 -621 179 -640 191 -3 2 24 101 61 221 37 120 82 264 99
321 18 56 35 102 39 102 4 0 147 -43 317 -96z m2041 -99 l262 -78 -9 -26 c-4
-14 -47 -159 -95 -321 -48 -162 -88 -296 -89 -298 -4 -4 -634 184 -641 191 -5
5 170 616 183 639 4 7 12 5 389 -107z m-6241 -685 c57 -173 101 -318 97 -321
-14 -14 -627 -208 -633 -201 -13 13 -210 625 -204 631 8 8 618 209 628 207 4
-1 55 -143 112 -316z m3085 37 c0 -11 -251 -600 -260 -610 -7 -8 -592 235
-614 254 -6 5 38 120 107 281 64 150 123 289 131 309 l15 37 310 -132 c171
-72 311 -134 311 -139z m-1757 -265 l237 -237 -238 -238 -237 -237 -240 240
-240 240 235 235 c129 129 237 235 240 235 3 0 112 -107 243 -238z m3341 132
c171 -53 313 -97 315 -99 3 -4 -188 -636 -194 -643 -3 -3 -634 188 -643 194
-7 5 194 644 202 644 5 0 149 -43 320 -96z m-5117 -790 c56 -170 102 -312 102
-316 1 -10 -632 -219 -640 -210 -9 9 -212 633 -207 636 18 10 625 205 633 203
5 -2 56 -143 112 -313z m3591 140 c163 -69 301 -130 306 -134 10 -10 -244
-619 -258 -620 -13 0 -598 250 -609 260 -5 4 49 142 119 306 135 319 133 314
140 314 3 0 139 -57 302 -126z m-1818 -949 l-240 -240 -235 235 c-129 129
-235 237 -235 240 0 3 106 113 235 245 l234 240 241 -240 240 -240 -240 -240z"/>
</g>
</svg>
