<?xml version="1.0" standalone="no"?>
<!DOCTYPE svg PUBLIC "-//W3C//DTD SVG 20010904//EN"
 "http://www.w3.org/TR/2001/REC-SVG-20010904/DTD/svg10.dtd">
<svg version="1.0" xmlns="http://www.w3.org/2000/svg"
 width="1280.000000pt" height="1280.000000pt" viewBox="0 0 1280.000000 1280.000000"
 preserveAspectRatio="xMidYMid meet">
<metadata>
Created by potrace 1.15, written by Peter Selinger 2001-2017
</metadata>
<g transform="translate(0.000000,1280.000000) scale(0.100000,-0.100000)"
fill="#000000" stroke="none">
<path d="M6383 12788 c-19 -26 -215 -576 -209 -587 13 -21 32 -11 66 34 18 25
51 57 73 72 81 56 171 29 247 -72 34 -45 56 -56 66 -32 4 12 -182 538 -204
576 -12 21 -27 24 -39 9z m60 -195 c21 -60 51 -142 66 -183 l28 -75 -55 27
c-30 16 -67 28 -82 28 -15 0 -52 -12 -82 -28 l-55 -27 28 75 c15 41 45 123 66
183 21 59 40 107 43 107 3 0 22 -48 43 -107z"/>
<path d="M5553 12737 c-4 -7 -38 -145 -75 -307 -60 -264 -65 -297 -51 -310 13
-13 16 -13 26 4 76 122 125 166 186 166 42 0 122 -43 165 -89 31 -32 50 -39
61 -21 8 13 -274 558 -292 564 -7 3 -16 0 -20 -7z m121 -268 l86 -165 -58 19
c-69 22 -121 13 -172 -30 -17 -14 -32 -24 -34 -22 -2 2 15 88 37 191 23 103
45 184 48 180 4 -4 45 -82 93 -173z"/>
<path d="M7224 12742 c-19 -12 -296 -551 -289 -562 11 -18 30 -11 61 21 16 17
52 44 79 60 106 61 168 30 272 -137 10 -17 13 -17 26 -4 14 13 9 46 -51 312
-37 164 -72 302 -77 307 -6 6 -15 7 -21 3z m80 -471 c-2 -2 -17 8 -34 22 -51
43 -103 52 -171 30 l-57 -19 20 40 c11 23 52 101 91 175 l71 135 42 -190 c23
-104 40 -191 38 -193z"/>
<path d="M4729 12578 c-5 -22 -56 -625 -52 -630 13 -22 35 -2 62 56 17 35 49
80 71 100 33 30 48 36 84 36 44 0 122 -34 162 -71 22 -21 49 -25 59 -9 10 16
-346 520 -367 520 -10 0 -18 -1 -19 -2z m160 -257 c56 -79 100 -145 99 -147
-2 -1 -24 3 -50 8 -62 15 -116 -1 -169 -49 l-41 -37 6 35 c3 19 10 95 16 169
12 154 18 187 29 174 5 -5 54 -74 110 -153z"/>
<path d="M7857 12325 c-98 -140 -176 -259 -172 -265 11 -17 36 -11 69 17 45
38 105 63 153 63 35 0 50 -6 83 -36 22 -20 54 -65 71 -100 27 -58 49 -78 63
-56 4 7 -37 497 -49 590 -5 31 -11 42 -23 42 -11 0 -83 -95 -195 -255z m192
-20 c7 -82 15 -163 18 -180 l6 -30 -41 37 c-54 49 -107 65 -170 50 -26 -5 -48
-9 -50 -8 -1 2 46 71 105 155 68 97 109 147 114 139 3 -7 12 -80 18 -163z"/>
<path d="M3945 12098 c13 -374 17 -423 39 -423 14 0 23 15 36 58 37 119 100
176 179 162 20 -3 67 -20 104 -37 48 -22 71 -28 79 -20 14 14 13 16 -212 260
-121 131 -202 212 -214 212 -18 0 -18 -9 -11 -212z m198 -39 c59 -64 107 -118
107 -120 0 -2 -25 -2 -56 -1 -70 5 -105 -10 -153 -64 l-38 -43 -6 136 c-4 75
-7 163 -7 197 l0 61 23 -25 c13 -14 71 -77 130 -141z"/>
<path d="M8630 12098 c-225 -244 -226 -246 -212 -260 8 -8 31 -2 79 20 37 17
84 34 104 37 79 14 142 -43 179 -162 13 -43 22 -58 36 -58 22 0 26 49 39 423
7 203 7 212 -11 212 -12 0 -93 -81 -214 -212z m175 -84 l-7 -184 -39 43 c-48
55 -83 70 -153 65 -31 -1 -56 -2 -56 0 0 12 256 279 259 271 2 -6 0 -94 -4
-195z"/>
<path d="M6165 12169 c-955 -33 -1916 -320 -2750 -822 -952 -574 -1725 -1415
-2214 -2412 -81 -164 -183 -397 -215 -489 -6 -16 -12 -10 -36 35 -84 160 -54
241 109 296 49 16 66 27 66 40 0 21 -51 25 -423 38 -213 7 -214 7 -210 -13 4
-28 446 -435 464 -428 8 3 14 3 14 1 0 -2 -23 -72 -51 -155 -37 -107 -55 -148
-63 -141 -7 6 -111 0 -281 -15 -351 -31 -355 -31 -355 -52 0 -20 505 -377 520
-367 14 8 13 -1 -10 -107 -10 -51 -24 -119 -30 -151 -9 -42 -15 -55 -23 -49
-14 12 -595 -113 -614 -132 -7 -6 -9 -16 -5 -22 13 -21 551 -296 563 -288 9 5
10 -10 6 -62 -4 -38 -9 -111 -13 -161 -4 -55 -10 -90 -16 -87 -12 7 -567 -194
-588 -213 -23 -21 0 -34 190 -103 96 -34 222 -80 279 -102 57 -21 109 -37 116
-34 9 3 14 -30 19 -127 4 -73 10 -142 13 -154 3 -15 1 -23 -8 -23 -18 0 -552
-279 -561 -293 -4 -7 -2 -17 5 -23 11 -10 553 -135 601 -139 17 -1 23 -22 47
-145 16 -79 27 -144 26 -145 -1 -1 -118 -82 -259 -181 -163 -113 -258 -185
-258 -196 0 -12 11 -18 43 -23 88 -12 582 -53 587 -49 2 3 26 -59 53 -138 l48
-142 -35 -31 c-176 -153 -426 -392 -426 -408 0 -19 8 -19 216 -12 119 4 262
10 319 14 l103 6 66 -134 c36 -74 62 -137 57 -140 -5 -3 -96 -111 -204 -240
-181 -217 -210 -261 -171 -261 17 0 585 99 600 104 7 3 49 -51 93 -119 l82
-124 -166 -261 c-91 -144 -165 -268 -165 -276 0 -8 9 -14 20 -14 12 0 150 40
307 90 158 49 288 89 289 87 1 -1 45 -51 97 -111 l95 -109 -45 -96 c-170 -365
-213 -461 -213 -475 0 -9 7 -16 16 -16 8 0 108 43 222 96 114 53 239 111 278
129 l70 32 80 -71 c44 -39 94 -83 111 -97 l32 -27 -93 -294 c-50 -162 -90
-300 -88 -306 2 -7 10 -12 17 -12 8 0 130 74 272 164 l257 163 121 -80 c66
-44 122 -81 124 -83 2 -2 -20 -141 -49 -310 -45 -256 -51 -307 -40 -314 9 -5
20 -4 29 3 8 7 116 96 239 199 l224 187 135 -67 135 -67 -6 -125 c-3 -69 -9
-210 -12 -313 -7 -188 -7 -189 14 -185 12 2 108 98 224 223 111 121 207 219
213 218 5 -1 69 -22 140 -47 118 -41 131 -47 137 -73 4 -15 17 -138 28 -273
25 -308 27 -320 48 -320 11 0 84 95 192 250 96 138 175 250 175 250 70 -11
289 -60 295 -66 4 -5 36 -137 70 -294 35 -157 67 -290 72 -297 5 -6 15 -10 21
-7 7 2 75 126 152 274 l140 269 110 -6 c61 -3 130 -9 154 -12 l44 -6 102 -278
c56 -153 107 -283 114 -290 8 -8 14 -8 22 0 7 7 58 137 114 290 l102 278 54 6
c30 4 99 9 154 12 l100 6 140 -269 c77 -148 145 -272 152 -274 6 -3 16 1 21 7
5 7 37 140 72 297 34 157 66 288 69 292 4 5 65 19 136 33 72 14 137 28 145 30
11 4 67 -69 190 -245 108 -155 181 -250 192 -250 21 0 22 12 48 315 11 132 23
254 25 271 5 31 9 33 148 79 l143 48 60 -64 c34 -35 125 -134 203 -219 80 -87
151 -156 163 -158 21 -4 21 -3 14 185 -3 103 -9 243 -13 310 l-6 121 131 66
c73 36 136 66 141 66 5 0 114 -87 242 -194 129 -108 238 -192 246 -189 7 3 13
12 13 20 0 8 -23 143 -50 299 -27 156 -50 288 -50 292 0 5 56 46 124 91 112
74 126 81 147 71 12 -7 127 -79 256 -161 128 -82 240 -149 248 -149 8 0 15 9
15 21 0 11 -38 143 -85 292 -47 149 -85 278 -84 287 0 8 32 42 71 75 38 33 88
75 109 94 l40 33 57 -25 c31 -13 155 -70 274 -126 119 -55 224 -101 232 -101
9 0 16 7 16 16 0 9 -56 137 -125 285 -69 148 -125 273 -125 277 0 18 192 227
206 224 8 -2 136 -41 284 -87 148 -47 278 -85 290 -85 11 0 20 7 20 15 0 8
-74 130 -164 272 l-163 257 80 121 c44 66 81 122 83 124 2 2 141 -20 310 -49
250 -44 307 -51 314 -40 10 17 21 2 -190 255 -96 116 -181 218 -188 227 -11
14 -3 35 53 149 l67 132 126 -6 c70 -4 211 -10 315 -13 181 -7 187 -6 187 12
0 16 -247 254 -422 406 l-31 27 43 133 c24 73 47 137 51 141 4 5 128 20 275
33 350 31 354 31 354 52 0 11 -95 83 -256 196 -178 125 -254 184 -252 195 2 9
14 73 28 143 l24 127 85 20 c47 10 183 40 301 67 118 26 220 51 227 56 6 5 10
15 7 22 -3 7 -131 77 -284 157 -264 136 -280 145 -275 169 2 14 7 79 10 146
l7 121 47 15 c145 49 533 196 543 206 9 9 9 15 -2 26 -8 7 -144 60 -302 117
l-286 104 -6 65 c-3 36 -8 101 -11 145 l-6 80 280 145 c154 79 283 150 285
156 3 7 -1 17 -7 22 -11 9 -559 134 -601 137 -17 1 -23 22 -47 145 -16 79 -27
144 -26 145 1 1 118 82 259 181 160 111 258 185 258 196 0 11 -11 18 -37 22
-34 5 -417 40 -552 50 l-54 4 -48 138 c-41 118 -46 140 -33 147 38 21 449 410
452 427 3 18 -3 20 -58 20 -139 0 -566 -22 -574 -30 -7 -7 -146 251 -146 272
0 3 6 8 14 10 24 5 405 470 399 486 -7 17 9 19 -348 -42 -173 -30 -273 -52
-279 -60 -7 -11 -32 19 -98 116 -75 110 -86 132 -74 142 21 15 336 514 336
530 0 26 -26 22 -175 -25 -82 -26 -211 -66 -285 -89 -74 -23 -141 -49 -149
-59 -14 -15 -23 -8 -105 89 -289 336 -726 721 -1122 987 -1036 696 -2204 1026
-3479 982z m835 -148 c1152 -126 2184 -568 3074 -1314 168 -142 531 -505 670
-672 686 -823 1111 -1759 1270 -2795 49 -323 60 -478 60 -865 0 -386 -10 -540
-60 -865 -147 -964 -551 -1890 -1155 -2651 -273 -344 -622 -691 -954 -950
-769 -599 -1617 -971 -2580 -1133 -317 -54 -529 -70 -920 -70 -303 0 -393 4
-565 22 -773 83 -1476 298 -2123 648 -1484 804 -2530 2206 -2871 3849 -119
574 -147 1210 -80 1800 99 884 418 1754 915 2498 222 332 408 557 714 863 329
329 621 565 980 791 753 473 1604 765 2475 847 91 9 188 18 215 20 28 2 208 2
400 1 269 -3 393 -8 535 -24z m4298 -1950 l-103 -161 -11 48 c-6 26 -16 57
-23 69 -15 29 -69 70 -103 78 -16 4 -28 10 -28 14 0 6 363 121 368 116 1 -1
-44 -75 -100 -164z m-242 -14 c16 -8 40 -27 54 -42 23 -24 25 -34 24 -108 -1
-45 -6 -95 -12 -110 l-12 -28 -90 118 c-49 65 -104 136 -122 157 l-32 39 80
-5 c45 -3 94 -13 110 -21z m678 -657 c-69 -82 -127 -150 -128 -150 -1 0 0 16
2 36 9 71 -45 157 -117 186 -22 9 0 16 149 44 96 17 185 33 198 33 19 1 1 -25
-104 -149z m-305 44 c30 -8 69 -30 89 -49 36 -33 37 -36 36 -102 0 -44 -8 -85
-21 -117 l-20 -48 -83 143 c-45 79 -89 154 -98 167 -14 21 -13 22 15 22 16 0
53 -7 82 -16z m-10560 -643 l105 -6 -37 -25 c-56 -38 -79 -89 -75 -160 1 -33
1 -60 -1 -60 -2 0 -58 50 -125 112 -67 61 -130 120 -141 130 -19 17 -17 18 75
17 52 -1 142 -4 199 -8z m11336 -9 c-11 -10 -74 -69 -141 -130 -67 -62 -123
-112 -125 -112 -2 0 -2 25 -1 56 5 71 -10 105 -65 154 l-45 39 94 4 c51 1 140
4 198 5 101 2 104 1 85 -16z m-406 -39 c71 -37 96 -71 95 -131 0 -44 -48 -172
-63 -172 -4 0 -23 39 -43 88 -20 48 -52 125 -72 171 l-36 84 32 -7 c18 -3 57
-18 87 -33z m-10983 -828 c-24 -88 -47 -173 -50 -188 l-7 -29 -31 39 c-43 54
-68 111 -68 160 0 35 6 50 36 83 29 32 152 106 161 97 1 -2 -18 -75 -41 -162z
m11220 119 c67 -38 104 -87 104 -137 0 -46 -24 -103 -64 -156 -17 -23 -27 -30
-30 -20 -3 8 -23 82 -45 164 -21 83 -43 158 -47 169 -6 16 -4 17 17 11 13 -4
43 -18 65 -31z m-11369 -13 c-48 -53 -64 -107 -49 -169 5 -26 9 -48 8 -49 -1
-2 -71 45 -154 104 -84 58 -150 109 -146 112 3 3 83 13 177 22 95 9 178 17
186 18 7 0 -3 -17 -22 -38z m11638 18 c83 -6 156 -15 163 -18 8 -5 -41 -45
-139 -114 -84 -59 -154 -106 -155 -104 -1 1 3 23 8 49 15 63 -1 116 -50 170
l-37 41 30 -6 c17 -3 98 -11 180 -18z m-11642 -851 c-12 -84 -22 -170 -23
-190 0 -21 -4 -38 -9 -38 -14 0 -79 76 -101 119 -26 51 -25 95 1 137 21 35 74
80 124 107 17 9 30 16 30 17 0 0 -10 -69 -22 -152z m11549 90 c76 -60 95 -125
58 -198 -21 -41 -77 -110 -89 -110 -7 0 -17 69 -48 319 -6 43 -6 43 18 31 13
-7 41 -26 61 -42z m-11682 16 c0 -3 -11 -19 -25 -36 -43 -51 -51 -98 -28 -167
l19 -59 -30 15 c-17 9 -96 50 -175 91 l-145 76 185 42 c213 48 199 46 199 38z
m11959 -44 l165 -36 -145 -76 c-79 -41 -158 -82 -175 -91 l-30 -15 19 59 c23
69 15 116 -28 167 -32 38 -31 44 2 36 15 -4 102 -24 192 -44z m-11881 -956
l-3 -95 -43 33 c-130 100 -130 216 0 316 l43 33 3 -95 c1 -53 1 -139 0 -192z
m11660 226 c93 -92 93 -168 0 -260 -28 -27 -55 -50 -59 -50 -5 0 -9 81 -9 180
0 99 4 180 9 180 4 0 31 -23 59 -50z m-11830 -46 c-35 -71 -35 -97 0 -166 l27
-55 -75 28 c-41 15 -123 45 -182 66 -60 21 -108 40 -108 43 0 3 82 35 183 72
100 36 182 67 183 67 0 1 -12 -24 -28 -55z m12155 -41 c59 -21 107 -40 107
-43 0 -3 -48 -22 -108 -43 -59 -21 -141 -51 -182 -66 l-75 -28 27 55 c16 30
28 67 28 82 0 15 -12 52 -28 82 l-27 55 75 -28 c41 -15 123 -45 183 -66z
m-11943 -788 c11 -94 23 -176 25 -182 7 -20 -8 -15 -59 18 -96 64 -126 140
-87 218 21 40 90 125 97 118 2 -1 12 -79 24 -172z m11611 70 c33 -57 36 -92
12 -142 -17 -37 -105 -113 -129 -113 -9 0 -13 3 -11 8 3 4 12 68 21 142 9 74
19 150 22 169 l5 33 26 -23 c14 -13 38 -46 54 -74z m-11784 -25 c-23 -70 -15
-117 30 -170 14 -17 24 -32 22 -34 -2 -2 -89 15 -194 38 l-190 43 175 91 c96
50 175 92 176 92 0 0 -8 -27 -19 -60z m12042 -53 l135 -71 -190 -42 c-104 -23
-191 -40 -193 -38 -2 2 8 17 22 34 45 53 53 100 30 169 l-19 59 40 -20 c23
-11 101 -52 175 -91z m-11720 -756 c23 -90 40 -166 38 -167 -10 -10 -110 52
-141 87 -41 45 -47 93 -21 156 21 49 65 107 74 96 4 -4 27 -82 50 -172z
m11305 115 c20 -31 31 -64 34 -100 4 -50 2 -56 -32 -93 -36 -40 -120 -92 -131
-82 -3 3 10 63 29 133 20 69 38 142 42 162 8 44 21 40 58 -20z m-11486 -68
c-15 -63 1 -116 50 -170 l37 -41 -30 6 c-17 3 -97 11 -180 18 -82 6 -156 15
-163 18 -8 5 42 46 139 114 84 59 153 106 155 105 1 -2 -3 -24 -8 -50z m11720
-62 c91 -63 138 -102 130 -107 -7 -3 -80 -12 -163 -18 -82 -7 -163 -15 -180
-18 l-30 -6 36 40 c57 63 71 134 42 209 -8 22 -11 24 165 -100z m-11320 -651
c22 -55 52 -126 66 -159 l26 -58 -28 6 c-49 12 -135 60 -156 89 -29 40 -27
107 7 181 17 36 31 56 36 50 5 -5 27 -54 49 -109z m10841 76 c71 -137 41 -219
-99 -272 -40 -15 -51 -16 -48 -6 4 18 122 316 125 317 2 0 11 -17 22 -39z
m-10997 -107 c-5 -70 10 -105 65 -153 l43 -39 -184 -7 c-101 -4 -189 -6 -194
-4 -9 3 254 257 268 258 3 1 3 -24 2 -55z m11218 -71 c76 -71 134 -130 128
-132 -5 -2 -93 0 -194 4 l-184 7 43 39 c55 48 70 83 65 153 -1 31 -2 56 0 56
2 0 66 -57 142 -127z m-10738 -576 c32 -56 71 -126 89 -154 36 -61 31 -64 -60
-37 -73 21 -121 67 -128 122 -6 42 21 172 36 172 3 0 32 -46 63 -103z m10212
-40 c1 -66 0 -69 -36 -102 -34 -31 -134 -71 -158 -63 -5 2 17 48 49 103 32 55
70 122 86 150 l29 50 15 -35 c8 -19 15 -66 15 -103z m-10362 7 c-9 -71 45
-157 117 -187 17 -7 21 -11 11 -13 -35 -8 -360 -64 -370 -64 -6 0 46 68 115
150 70 83 128 150 129 150 1 0 0 -16 -2 -36z m10543 -114 c69 -82 121 -150
115 -150 -10 0 -335 56 -370 64 -10 2 -6 6 11 13 72 30 126 116 117 187 -2 20
-3 36 -2 36 1 0 59 -67 129 -150z m-9930 -554 l98 -129 -66 6 c-74 7 -110 22
-147 62 -22 24 -25 35 -25 103 0 42 4 86 8 96 10 24 4 30 132 -138z m9331 88
c17 -136 -32 -197 -168 -211 l-62 -6 19 25 c11 14 58 75 104 137 47 61 88 111
92 111 4 0 11 -25 15 -56z m-9497 -161 c15 -29 69 -70 104 -78 15 -4 27 -10
27 -14 0 -3 -35 -16 -77 -28 -43 -13 -127 -38 -186 -57 -60 -19 -107 -31 -105
-27 2 4 48 78 103 165 l100 156 11 -47 c6 -27 16 -58 23 -70z m9660 -46 c56
-87 101 -160 101 -162 0 -2 -48 12 -107 31 -60 19 -143 44 -185 57 -43 12 -78
25 -78 28 0 4 12 10 28 14 37 9 89 50 106 83 7 15 17 46 21 70 4 24 8 42 10
40 2 -2 48 -74 104 -161z m-9007 -436 c65 -66 118 -122 118 -125 0 -4 -30 -6
-67 -6 -128 0 -176 45 -182 171 -1 43 0 79 4 79 5 0 61 -54 127 -119z m8331
-49 c-30 -59 -63 -76 -156 -80 l-82 -4 125 126 125 126 3 -66 c2 -48 -2 -75
-15 -102z m-8456 -74 c15 -16 51 -36 79 -45 l53 -16 -127 -60 c-70 -32 -150
-69 -179 -82 l-52 -23 33 71 c18 40 55 120 82 178 l49 106 18 -50 c9 -28 29
-64 44 -79z m8668 -175 l23 -51 -51 23 c-29 13 -109 50 -179 82 l-127 60 54
17 c64 20 106 63 125 130 l13 46 59 -127 c33 -71 70 -151 83 -180z m-8007
-180 c54 -43 113 -90 132 -104 19 -15 31 -31 27 -35 -4 -5 -46 -8 -92 -9 -75
0 -86 2 -110 25 -15 14 -33 37 -41 52 -15 29 -31 148 -20 148 3 0 50 -35 104
-77z m7249 17 c-8 -68 -23 -104 -62 -140 -24 -23 -35 -25 -110 -25 -75 1 -119
11 -90 21 6 3 67 49 135 103 69 55 127 100 129 100 2 1 1 -26 -2 -59z m-7382
-87 c8 -35 49 -89 78 -104 12 -7 43 -17 70 -23 l48 -11 -142 -90 c-78 -49
-152 -96 -165 -102 l-22 -13 24 78 c13 42 39 125 56 184 18 60 36 108 39 108
4 0 10 -12 14 -27z m7486 -156 c31 -100 55 -183 54 -185 -1 -1 -75 44 -164
100 l-161 103 48 11 c26 6 57 16 69 23 29 15 70 69 78 104 4 15 10 27 14 27 3
0 31 -82 62 -183z m-6647 -250 l109 -61 -34 -15 c-19 -8 -64 -15 -101 -15 -57
-1 -70 2 -94 24 -31 29 -59 87 -70 144 l-7 39 44 -27 c24 -15 93 -55 153 -89z
m5921 71 c-11 -54 -40 -111 -69 -138 -24 -22 -36 -25 -94 -24 -76 1 -137 20
-112 35 65 41 267 157 273 158 5 1 6 -14 2 -31z m-6125 -101 c0 -7 14 -29 30
-49 35 -43 104 -72 154 -66 20 2 36 3 36 2 0 -6 -300 -252 -300 -246 -1 31 65
380 72 376 4 -3 8 -11 8 -17z m6220 -349 c0 -12 -51 25 -150 108 -82 70 -150
127 -150 128 0 1 16 0 36 -2 72 -9 157 45 186 117 9 22 16 -1 44 -154 18 -99
33 -188 34 -197z m-5385 69 c72 -30 139 -57 150 -61 18 -7 16 -9 -15 -26 -97
-52 -179 -46 -226 15 -32 43 -71 140 -52 132 7 -3 72 -30 143 -60z m4610 26
c-10 -44 -53 -111 -83 -131 -36 -23 -105 -21 -166 6 -27 12 -46 25 -42 29 7 7
276 120 290 122 4 1 5 -11 1 -26z m-4666 -183 c16 -6 55 -10 85 -8 31 1 56 2
56 0 0 -11 -256 -278 -259 -270 -2 5 0 93 4 194 l7 184 39 -43 c21 -25 52 -50
68 -57z m4699 -222 l-3 -66 -127 138 c-71 77 -128 140 -128 142 0 2 26 2 59 0
71 -4 106 11 153 67 l33 40 8 -127 c4 -70 6 -157 5 -194z m-3906 126 c82 -21
146 -43 145 -49 -2 -5 -28 -23 -58 -38 -44 -23 -63 -28 -102 -24 -54 5 -84 27
-128 96 -31 49 -36 66 -16 58 6 -2 78 -22 159 -43z m3145 -6 c-64 -108 -137
-133 -236 -81 -56 29 -76 53 -44 53 10 0 81 17 158 39 77 21 142 37 144 35 2
-2 -8 -22 -22 -46z m-3197 -149 c30 -9 52 -10 88 -1 26 5 48 9 49 8 2 -1 -45
-71 -104 -155 -69 -98 -109 -147 -114 -139 -3 7 -12 81 -18 163 -7 83 -15 163
-18 180 l-6 30 41 -37 c22 -20 59 -42 82 -49z m3201 -106 c-9 -100 -19 -184
-22 -187 -3 -4 -54 62 -112 146 -59 83 -106 153 -104 154 1 1 25 -3 53 -9 63
-13 124 6 169 53 16 16 29 29 31 27 1 -1 -6 -84 -15 -184z m-2382 111 l141
-18 -20 -21 c-12 -13 -44 -35 -72 -50 -84 -46 -154 -23 -220 72 l-31 46 30 -6
c16 -3 94 -14 172 -23z m1631 -18 c-58 -85 -134 -115 -201 -81 -43 22 -99 64
-99 74 0 4 66 16 148 25 81 10 149 20 151 22 2 2 11 4 18 4 9 0 4 -15 -17 -44z
m-751 -56 c-83 -112 -215 -112 -298 0 l-22 30 171 0 171 0 -22 -30z m-1017
-45 c49 -41 101 -50 169 -28 l57 19 -20 -40 c-11 -23 -52 -102 -91 -176 l-71
-134 -36 165 c-20 90 -40 177 -44 192 -8 33 -2 34 36 2z m1772 -2 c-4 -15 -24
-102 -44 -192 l-36 -165 -71 134 c-39 74 -80 153 -91 176 l-20 40 57 -19 c68
-22 122 -13 168 28 36 32 45 31 37 -2z m-904 -93 c15 0 52 12 82 28 l55 27
-28 -75 c-15 -41 -45 -123 -66 -183 -21 -59 -40 -107 -43 -107 -3 0 -22 48
-43 107 -21 60 -51 142 -66 183 l-28 75 55 -27 c30 -16 67 -28 82 -28z"/>
<path d="M5830 11729 c-112 -221 -219 -506 -240 -636 -30 -180 94 -361 284
-413 l61 -17 -70 -7 c-149 -16 -529 -92 -610 -122 -11 -4 3 10 31 32 67 51 98
89 131 161 23 49 28 71 28 148 0 76 -4 98 -26 145 -45 96 -147 219 -345 418
-188 187 -217 209 -242 180 -11 -15 -73 -259 -101 -403 -52 -271 -54 -414 -6
-510 33 -65 112 -142 177 -173 53 -25 158 -45 184 -36 13 5 16 4 9 -3 -5 -5
-59 -27 -119 -47 -127 -43 -308 -118 -426 -176 -46 -22 -85 -40 -88 -40 -2 0
14 21 38 46 23 25 54 71 68 102 23 49 27 70 27 152 0 88 -3 101 -33 162 -40
81 -137 176 -305 296 -132 95 -364 242 -382 242 -31 0 -37 -32 -47 -237 -10
-231 1 -468 27 -568 45 -172 204 -283 388 -273 42 3 77 4 77 2 0 -1 -30 -19
-67 -39 -73 -41 -377 -241 -457 -302 l-49 -37 26 39 c109 166 72 392 -85 510
-97 73 -320 180 -585 281 -143 54 -158 51 -148 -29 40 -317 112 -623 174 -745
77 -151 283 -226 455 -166 21 8 40 14 43 14 2 0 -17 -19 -44 -42 -115 -99
-264 -243 -343 -331 -47 -53 -86 -94 -88 -93 -1 2 2 16 8 32 55 144 13 315
-102 419 -89 80 -305 146 -702 215 -145 25 -160 22 -153 -29 11 -84 180 -500
257 -631 59 -101 102 -145 178 -182 61 -30 75 -33 162 -33 100 0 153 14 214
58 l31 22 -23 -30 c-98 -129 -219 -304 -273 -391 -35 -58 -68 -112 -74 -120
-7 -10 -10 15 -10 83 0 85 -4 105 -26 153 -55 116 -146 187 -275 215 -187 40
-733 42 -758 3 -12 -20 -2 -40 122 -238 181 -290 307 -440 409 -488 50 -23 71
-27 153 -27 81 0 103 4 150 26 31 14 73 41 93 59 20 17 37 29 37 26 0 -4 -20
-46 -44 -94 -53 -105 -115 -249 -166 -385 l-38 -100 -7 52 c-10 75 -67 182
-122 230 -25 23 -71 53 -102 68 -53 26 -64 28 -181 27 -129 -2 -280 -23 -498
-69 -192 -41 -222 -52 -222 -78 0 -44 341 -397 495 -512 92 -69 122 -84 195
-94 122 -16 235 21 322 107 27 25 48 43 48 39 0 -4 -13 -60 -30 -125 -31 -126
-64 -286 -75 -367 -12 -90 -15 -92 -40 -31 -58 144 -193 236 -346 236 -111 0
-331 -71 -637 -206 -126 -55 -161 -81 -147 -104 11 -18 202 -159 334 -247 69
-46 177 -110 240 -141 l114 -57 96 0 c84 0 103 4 151 27 71 35 121 77 157 132
l30 44 -1 -289 c-1 -159 -2 -289 -3 -289 0 0 -13 20 -27 44 -63 108 -230 189
-353 172 -119 -16 -399 -172 -671 -373 -97 -72 -96 -84 18 -140 140 -70 380
-169 506 -209 159 -50 240 -52 334 -8 36 17 80 43 98 59 41 34 89 103 106 153
13 35 14 36 19 12 3 -14 11 -63 18 -110 9 -70 35 -202 77 -400 5 -22 0 -20
-47 22 -72 65 -144 91 -251 92 -104 1 -153 -20 -280 -115 -108 -80 -470 -441
-470 -467 0 -36 27 -46 270 -101 324 -73 521 -89 625 -50 102 38 200 152 229
267 l12 45 43 -119 c25 -65 70 -179 102 -251 32 -73 55 -133 52 -133 -3 0 -16
9 -31 20 -47 37 -156 63 -235 57 -146 -12 -250 -95 -425 -340 -120 -167 -243
-368 -240 -391 5 -32 50 -37 373 -38 324 -2 408 7 504 54 102 49 185 174 199
299 l7 63 72 -120 c40 -66 104 -164 143 -219 38 -54 69 -100 67 -101 -2 -2
-23 4 -47 12 -59 21 -175 20 -238 0 -67 -23 -136 -73 -182 -134 -69 -92 -183
-334 -280 -590 -51 -137 -48 -148 39 -137 133 16 365 58 481 86 222 54 311 99
373 191 53 77 69 130 69 226 0 46 3 80 7 75 4 -4 84 -87 178 -183 l171 -175
-101 0 c-97 0 -105 -2 -165 -34 -124 -67 -179 -160 -242 -406 -41 -158 -100
-457 -100 -507 0 -51 60 -37 375 89 229 91 376 172 436 241 85 97 112 259 63
386 -4 12 21 -2 69 -38 42 -31 137 -96 211 -145 l135 -88 -58 -6 c-110 -10
-231 -88 -284 -184 -14 -28 -33 -79 -41 -114 -24 -100 -39 -375 -32 -568 6
-172 12 -201 43 -201 37 0 431 255 564 366 120 100 165 174 176 289 6 67 -15
168 -47 221 l-18 32 86 -40 c48 -22 152 -66 232 -98 130 -52 141 -59 115 -66
-56 -13 -146 -67 -186 -112 -21 -25 -51 -70 -66 -101 -26 -52 -28 -64 -27
-181 1 -138 10 -207 59 -450 53 -258 55 -265 87 -265 49 0 389 324 515 491 71
95 93 154 93 249 0 88 -25 164 -77 232 -21 28 -29 43 -19 40 33 -13 223 -55
345 -77 l125 -23 -39 -19 c-57 -30 -133 -111 -163 -176 -24 -51 -27 -68 -26
-162 0 -98 3 -115 47 -244 54 -160 190 -486 217 -519 15 -18 22 -20 37 -11 51
31 309 409 391 573 57 113 57 114 57 205 0 81 -3 98 -31 156 -17 36 -51 85
-77 111 l-47 45 238 0 238 -1 -48 -47 c-89 -87 -133 -224 -109 -339 23 -107
154 -340 336 -597 102 -144 111 -145 172 -22 117 238 220 509 243 642 13 74
-1 151 -40 229 -27 51 -96 121 -146 147 -47 24 -49 23 126 52 74 12 170 30
214 41 43 10 83 19 87 19 5 0 -7 -21 -26 -46 -50 -65 -79 -168 -72 -252 13
-138 91 -248 377 -534 185 -186 213 -206 239 -175 13 17 82 298 112 462 16 84
23 160 23 255 1 129 0 137 -26 187 -51 96 -109 150 -207 189 -45 19 -52 24
-36 30 85 31 252 98 310 124 125 57 117 58 88 -8 -36 -83 -42 -180 -14 -270
24 -81 80 -149 206 -252 153 -125 475 -333 508 -328 32 5 38 57 39 373 2 383
-15 472 -104 570 -63 70 -121 104 -211 125 l-70 16 49 29 c40 23 256 167 337
225 20 14 20 14 13 -5 -42 -110 -22 -253 51 -357 56 -82 248 -191 548 -311
218 -88 232 -92 251 -76 18 14 16 29 -22 264 -40 245 -90 437 -139 535 -29 58
-111 135 -172 162 -31 13 -80 23 -138 27 l-90 6 174 172 173 171 -5 -40 c-8
-58 10 -154 39 -213 75 -150 217 -216 643 -299 252 -50 281 -53 297 -31 11 14
6 36 -30 139 -101 283 -198 496 -270 594 -82 111 -214 165 -350 145 -39 -6
-80 -14 -90 -19 -14 -5 -6 11 25 52 53 68 172 246 215 319 l29 50 7 -65 c10
-87 55 -177 118 -233 112 -101 214 -121 633 -121 309 -1 316 0 317 40 0 26
-225 384 -317 502 -69 90 -162 180 -208 202 -105 51 -235 49 -337 -4 -27 -14
-48 -23 -48 -21 0 3 21 51 46 107 38 85 104 248 139 343 5 16 10 9 24 -35 34
-108 107 -191 210 -238 77 -36 192 -40 377 -13 139 20 452 83 499 101 49 19
33 47 -128 220 -231 248 -395 382 -502 411 -104 28 -255 -8 -338 -81 -20 -17
-37 -30 -37 -27 0 3 11 52 25 109 20 88 45 217 71 376 l5 33 30 -59 c51 -103
154 -179 272 -201 98 -18 235 16 522 130 211 83 320 139 320 163 0 24 -116
115 -325 254 -167 112 -280 173 -364 197 -141 41 -298 -15 -396 -142 l-25 -32
0 270 c0 244 1 268 15 247 70 -107 198 -178 322 -178 121 0 318 102 656 338
165 116 165 113 -20 202 -180 86 -399 172 -507 200 -164 43 -293 15 -396 -86
-25 -24 -59 -72 -75 -107 -17 -34 -30 -57 -30 -50 0 49 -79 450 -107 538 -4
13 8 6 37 -22 23 -24 72 -57 108 -75 61 -30 74 -33 162 -33 114 1 147 13 270
105 111 83 480 450 480 477 0 31 -14 38 -155 72 -293 73 -503 106 -627 99
-167 -9 -297 -118 -339 -286 l-16 -64 -33 89 c-45 123 -126 316 -161 385 -16
32 -29 60 -29 62 0 3 23 -11 51 -30 28 -19 76 -41 107 -50 72 -21 189 -15 255
15 91 40 209 170 370 407 175 258 198 304 160 319 -32 12 -405 22 -558 14
-237 -12 -312 -36 -398 -128 -67 -72 -99 -147 -105 -243 l-4 -76 -67 109 c-54
88 -145 221 -260 381 -14 19 -13 19 20 -1 125 -74 303 -59 426 35 83 63 208
304 344 661 38 101 41 126 14 137 -17 6 -290 -34 -435 -64 -242 -51 -364 -98
-433 -168 -100 -103 -135 -254 -91 -395 4 -12 -33 21 -82 73 -114 122 -158
167 -273 272 -92 85 -92 86 -50 71 67 -25 191 -22 261 6 71 27 161 107 192
170 64 127 172 568 179 732 2 51 1 54 -23 57 -74 9 -613 -222 -733 -313 -130
-99 -172 -293 -98 -450 l29 -64 -91 68 c-121 89 -229 161 -353 236 l-100 60
100 0 c88 0 108 3 156 26 111 52 180 135 210 254 47 185 54 750 9 778 -21 13
-117 -41 -359 -201 -218 -144 -346 -265 -376 -352 -43 -125 -15 -281 67 -374
22 -25 38 -46 35 -46 -4 0 -47 21 -97 46 -108 54 -273 123 -418 174 l-104 37
59 5 c140 14 256 93 316 216 32 65 33 69 32 197 -1 85 -9 175 -23 260 -29 166
-89 437 -100 448 -20 20 -57 -5 -192 -128 -247 -225 -404 -415 -430 -518 -6
-26 -10 -82 -7 -125 6 -99 46 -180 127 -254 43 -39 50 -50 31 -44 -80 23 -381
87 -475 101 -60 9 -126 20 -145 25 l-35 8 36 1 c53 1 170 64 219 117 23 25 54
71 68 102 24 51 27 68 26 162 0 99 -3 113 -51 255 -68 199 -200 503 -225 516
-25 14 -52 -16 -180 -195 -202 -284 -288 -446 -296 -556 -11 -161 77 -304 229
-375 53 -24 53 -25 14 -17 -22 4 -179 7 -350 7 l-310 0 57 28 c142 70 232 251
200 402 -21 104 -127 295 -305 555 -138 200 -137 200 -207 59z m203 -186 c65
-97 146 -232 179 -299 56 -115 60 -127 60 -194 0 -125 -65 -225 -182 -282 -68
-33 -187 -31 -255 4 -101 53 -166 145 -173 249 -5 65 20 169 71 304 46 121
168 395 176 395 3 0 59 -80 124 -177z m985 36 c108 -252 172 -454 172 -543 0
-114 -85 -234 -193 -274 -69 -26 -155 -28 -221 -6 -64 22 -148 100 -176 165
-50 117 -34 200 74 383 109 186 273 413 287 399 4 -4 30 -60 57 -124z m-1896
-292 c210 -229 252 -298 251 -411 -1 -167 -120 -293 -288 -304 -124 -7 -230
51 -290 159 -29 51 -30 59 -29 164 1 61 9 153 18 205 18 100 85 400 93 413 6
11 147 -119 245 -226z m2887 111 c72 -336 93 -572 58 -652 -50 -113 -166 -190
-286 -190 -161 0 -294 121 -308 281 -12 129 35 202 298 466 108 108 201 197
207 197 5 0 19 -46 31 -102z m-3898 -399 c137 -92 302 -221 343 -270 50 -59
70 -116 70 -199 0 -125 -61 -222 -172 -277 -46 -23 -70 -28 -132 -28 -89 0
-154 25 -213 83 -85 82 -98 138 -104 469 -3 145 -2 283 1 308 l7 45 42 -27
c23 -14 94 -61 158 -104z m4829 -442 c-19 -166 -51 -239 -132 -297 -204 -148
-491 -2 -491 250 0 157 99 260 485 500 l143 90 3 -223 c2 -122 -2 -266 -8
-320z m-2300 33 c1107 -67 2106 -535 2853 -1338 1185 -1274 1469 -3142 716
-4701 -211 -437 -450 -778 -789 -1125 -841 -861 -1992 -1317 -3200 -1265 -221
10 -320 20 -548 60 -1022 176 -1954 737 -2603 1569 -650 834 -960 1890 -868
2960 109 1266 797 2427 1859 3135 247 164 428 263 687 374 594 254 1254 369
1893 331z m-3458 -95 c467 -187 578 -278 578 -474 0 -210 -213 -355 -414 -284
-66 24 -138 90 -164 151 -44 103 -101 338 -132 547 -6 39 -12 80 -15 93 -3 12
-2 22 3 22 4 0 69 -25 144 -55z m6633 -7 c-2 -13 -14 -75 -25 -138 -41 -222
-108 -456 -150 -525 -50 -81 -150 -135 -251 -135 -89 0 -149 23 -213 81 -71
64 -100 130 -100 224 0 94 30 160 98 222 57 51 241 144 426 215 63 25 133 52
155 60 57 23 66 22 60 -4z m-7200 -734 c246 -55 372 -107 427 -176 65 -82 86
-203 52 -302 -22 -64 -100 -147 -166 -177 -74 -33 -183 -32 -252 1 -72 35
-115 84 -178 207 -68 131 -208 470 -208 503 0 9 165 -20 325 -56z m7874 -156
c-123 -307 -229 -482 -318 -527 -154 -78 -339 -17 -423 141 -19 36 -23 59 -23
133 0 81 3 95 30 144 56 101 127 141 350 196 140 34 439 85 443 75 2 -5 -25
-77 -59 -162z m-8149 -673 c89 -20 155 -59 197 -118 147 -204 9 -489 -237
-491 -109 -1 -144 15 -235 108 -74 74 -251 325 -340 480 l-28 48 284 -5 c212
-4 303 -9 359 -22z m8753 -33 l37 -7 -80 -123 c-177 -272 -306 -424 -392 -463
-72 -32 -183 -33 -249 -2 -173 79 -239 297 -136 450 61 90 129 127 267 143 83
9 503 11 553 2z m-9027 -836 c245 -114 231 -471 -22 -566 -61 -22 -143 -26
-195 -8 -51 17 -133 76 -236 170 -97 88 -313 314 -313 327 0 5 15 11 33 14 17
3 88 18 157 32 186 39 293 53 415 54 96 1 116 -2 161 -23z m8919 -26 c157 -18
509 -92 530 -111 13 -13 -286 -305 -397 -389 -112 -85 -156 -104 -243 -104
-247 -1 -389 279 -247 486 37 54 98 97 160 114 59 16 85 16 197 4z m-9098
-874 c186 -94 231 -329 92 -481 -64 -70 -130 -99 -225 -100 -65 0 -79 4 -167
48 -135 67 -499 311 -494 331 3 10 124 64 267 120 305 120 418 138 527 82z
m9289 -41 c49 -14 121 -38 159 -52 69 -26 376 -161 384 -169 6 -6 -15 -21
-174 -128 -268 -178 -393 -239 -495 -240 -221 -1 -373 240 -277 436 52 106
158 176 268 177 26 1 87 -10 135 -24z m-9322 -861 c64 -22 147 -100 177 -166
63 -146 -1 -327 -144 -399 -119 -62 -279 -25 -679 156 -71 31 -128 60 -128 64
0 3 75 56 168 117 346 231 466 276 606 228z m9288 -48 c37 -13 120 -56 185
-94 141 -85 379 -253 377 -267 -2 -15 -247 -119 -415 -176 -243 -82 -348 -76
-454 27 -68 66 -90 120 -90 224 0 73 4 92 27 136 26 50 84 111 130 135 28 15
113 37 148 38 14 0 55 -10 92 -23z m-9084 -867 c224 -111 230 -423 11 -544
-52 -29 -58 -30 -174 -28 -72 0 -164 9 -230 22 -165 31 -385 83 -385 92 0 15
297 305 379 369 128 101 169 120 261 120 66 0 86 -4 138 -31z m8929 -37 c22
-12 74 -48 115 -81 77 -62 398 -384 398 -400 0 -17 -337 -83 -520 -101 -165
-17 -233 -3 -316 65 -27 22 -55 60 -75 100 -29 60 -31 70 -27 148 4 70 9 93
35 138 35 62 107 123 173 144 61 20 163 14 217 -13z m-8592 -806 c72 -33 107
-66 146 -138 29 -56 33 -72 33 -138 0 -99 -28 -164 -99 -228 -56 -52 -91 -66
-200 -82 -81 -11 -574 -13 -592 -2 -8 5 23 59 101 177 130 194 253 347 313
388 87 60 199 69 298 23z m8240 -40 c87 -40 203 -181 375 -458 l90 -143 -223
-3 c-359 -5 -499 19 -582 102 -162 163 -103 435 112 512 63 22 170 18 228 -10z
m-7716 -731 c58 -32 100 -75 133 -138 19 -35 23 -58 23 -132 0 -78 -4 -97 -27
-140 -59 -112 -142 -156 -404 -214 -123 -27 -387 -72 -392 -66 -6 6 91 248
153 380 87 186 147 270 220 307 64 33 85 38 165 35 61 -3 86 -9 129 -32z
m7204 -28 c74 -31 129 -101 207 -262 66 -136 187 -441 179 -450 -13 -12 -399
71 -543 117 -120 38 -180 77 -223 141 -43 64 -56 117 -51 197 16 213 231 342
431 257z m-6567 -620 c129 -66 195 -208 160 -345 -29 -114 -76 -162 -236 -242
-134 -67 -458 -200 -489 -200 -9 0 -9 2 31 209 37 196 90 377 130 453 35 66
85 111 156 139 68 28 179 21 248 -14z m5921 -25 c99 -51 141 -113 188 -276 26
-92 67 -288 85 -411 6 -38 12 -80 15 -92 3 -13 1 -23 -5 -23 -25 0 -257 98
-410 173 -194 95 -264 153 -295 246 -40 120 -1 262 93 339 90 74 233 93 329
44z m-5175 -482 c107 -50 180 -157 182 -268 2 -102 -18 -148 -103 -233 -92
-91 -358 -279 -508 -358 l-23 -12 0 233 c0 228 15 409 39 472 61 157 261 238
413 166z m4389 -16 c89 -28 160 -109 187 -213 17 -64 30 -610 15 -648 -8 -22
-13 -20 -132 57 -269 175 -414 298 -458 388 -69 140 -11 321 126 395 87 48
160 53 262 21z m-3522 -350 c99 -53 161 -161 161 -279 0 -103 -84 -223 -319
-453 -127 -125 -188 -178 -196 -171 -7 7 -63 290 -80 404 -23 152 -24 289 -1
340 59 137 155 198 301 192 66 -3 90 -8 134 -33z m2697 -4 c94 -46 161 -138
171 -235 8 -72 -12 -230 -52 -420 -49 -231 -57 -265 -68 -265 -18 0 -321 314
-386 400 -84 111 -104 157 -104 240 0 97 45 190 120 247 86 66 221 80 319 33z
m-1817 -170 c111 -56 176 -158 176 -275 -1 -59 -6 -82 -36 -146 -45 -94 -133
-234 -252 -403 l-92 -128 -27 58 c-96 209 -194 490 -205 590 -15 137 71 269
207 318 61 22 172 15 229 -14z m918 -7 c64 -30 136 -107 157 -170 32 -93 12
-206 -73 -421 -55 -140 -152 -352 -160 -352 -16 0 -240 352 -298 468 -61 121
-63 127 -63 201 0 92 22 146 83 209 96 100 228 124 354 65z"/>
<path d="M6640 10482 c0 -4 9 -25 20 -47 28 -54 26 -119 -5 -181 -14 -27 -65
-93 -114 -147 -138 -154 -174 -230 -163 -344 5 -49 19 -40 37 25 24 83 54 128
157 240 147 158 184 238 164 347 -9 48 -96 145 -96 107z"/>
<path d="M5060 10263 c0 -5 16 -21 36 -37 81 -64 83 -137 13 -354 -60 -184
-68 -264 -32 -343 34 -76 41 -69 40 44 -1 98 0 106 45 225 58 152 72 213 66
290 -5 74 -40 133 -98 162 -40 20 -70 26 -70 13z"/>
<path d="M8185 10041 c9 -57 -10 -116 -54 -160 -22 -22 -97 -68 -187 -114
-179 -92 -213 -119 -253 -199 -50 -100 -37 -120 25 -38 48 63 75 81 255 168
203 99 259 157 259 272 0 52 -22 110 -41 110 -7 0 -8 -14 -4 -39z"/>
<path d="M5982 9983 c-20 -8 -42 -59 -42 -97 0 -194 147 -382 343 -440 41 -12
40 -12 -72 -19 -249 -16 -518 -68 -756 -145 l-144 -47 54 47 c137 122 189 307
135 481 -31 100 -85 132 -144 86 -38 -30 -97 -153 -145 -304 -23 -71 -44 -136
-46 -143 -4 -9 -35 3 -107 42 -226 120 -358 156 -407 112 -73 -66 50 -261 217
-343 74 -37 79 -38 188 -38 l111 0 -125 -63 c-212 -106 -412 -236 -576 -374
-55 -46 -111 -93 -125 -105 l-27 -21 28 56 c83 169 51 377 -77 509 -59 61 -96
69 -133 31 -36 -40 -45 -106 -39 -277 4 -86 10 -176 13 -200 l7 -44 -54 6
c-133 16 -348 20 -395 8 -117 -30 -125 -107 -19 -191 112 -89 259 -120 399
-84 33 8 80 26 104 39 l43 24 -53 -60 c-178 -203 -327 -417 -437 -629 l-71
-135 0 72 c0 79 -24 169 -63 235 -56 95 -196 198 -271 198 -42 0 -76 -37 -76
-82 0 -50 48 -176 120 -316 43 -83 64 -135 57 -137 -7 -2 -73 -24 -147 -48
-229 -75 -320 -131 -320 -196 0 -60 83 -101 216 -109 142 -7 242 29 348 127
31 29 47 39 42 26 -77 -201 -151 -519 -171 -735 -3 -36 -8 -86 -11 -112 l-6
-48 -31 63 c-76 153 -267 269 -419 255 -84 -9 -109 -57 -69 -136 23 -44 157
-180 257 -259 40 -32 73 -60 73 -63 1 -3 -22 -24 -51 -45 -86 -65 -258 -236
-279 -277 -54 -105 13 -158 163 -128 138 26 269 128 328 252 l27 58 7 -93 c17
-220 62 -467 122 -664 19 -62 34 -115 34 -119 0 -3 -19 10 -42 29 -100 81
-202 113 -333 104 -125 -8 -205 -51 -205 -110 0 -66 133 -143 365 -211 50 -15
95 -29 102 -31 7 -2 -15 -54 -57 -137 -72 -140 -120 -266 -120 -316 0 -45 34
-82 77 -82 78 0 213 102 276 210 30 52 57 147 57 205 0 38 3 35 64 -81 97
-185 208 -355 334 -509 36 -44 69 -85 74 -91 6 -8 -6 -7 -33 3 -151 52 -339 8
-457 -106 -71 -69 -54 -136 40 -162 44 -12 325 -7 417 7 l44 7 -7 -39 c-13
-90 -18 -379 -7 -422 33 -120 128 -105 216 33 75 117 91 247 49 394 -6 20 14
7 97 -61 133 -110 322 -237 474 -322 100 -55 114 -66 88 -66 -47 0 -152 -35
-205 -69 -134 -85 -229 -259 -172 -315 47 -47 141 -25 357 83 94 47 160 74
162 67 33 -116 95 -294 122 -347 102 -204 226 -138 227 121 0 118 -18 180 -79
269 l-34 48 72 -22 c223 -71 460 -117 702 -138 l30 -2 -45 -27 c-93 -54 -177
-166 -204 -273 -47 -178 15 -264 135 -186 49 32 155 139 244 246 32 39 61 71
64 72 3 1 24 -21 46 -50 138 -178 270 -297 331 -297 68 0 94 60 74 171 -21
125 -91 233 -196 305 l-57 39 44 3 c187 11 586 92 735 149 10 4 3 -13 -20 -48
-52 -79 -77 -157 -78 -248 -2 -185 79 -299 164 -231 38 30 95 146 144 298 25
75 47 142 49 149 3 8 34 -5 92 -36 129 -71 277 -132 336 -138 43 -4 57 -1 80
17 35 28 36 69 1 138 -59 119 -186 215 -321 243 l-61 13 106 59 c180 99 340
210 539 371 l31 26 -14 -47 c-41 -136 6 -320 109 -428 35 -37 50 -45 79 -45
78 0 104 80 94 290 -3 74 -9 161 -12 194 l-7 59 34 -6 c60 -11 353 -20 402
-13 62 9 107 47 107 89 0 41 -80 119 -163 158 -94 43 -187 56 -280 38 -41 -8
-73 -11 -70 -6 3 6 37 48 75 96 97 121 214 295 291 436 89 162 86 157 86 112
2 -90 74 -234 152 -300 134 -115 256 -117 253 -4 -1 63 -36 158 -114 311 -46
91 -66 138 -57 141 6 2 58 17 113 34 342 104 447 216 273 291 -136 58 -325 28
-454 -74 -31 -25 -38 -27 -31 -11 4 11 23 72 41 136 55 188 83 350 111 637 l5
52 27 -50 c76 -142 237 -240 394 -240 49 0 63 4 83 25 63 62 0 159 -227 347
-54 45 -98 84 -98 87 0 4 26 26 58 51 88 69 232 210 264 259 45 72 35 122 -31
142 -52 15 -159 -3 -241 -42 -74 -35 -175 -133 -204 -197 -10 -23 -23 -42 -28
-42 -4 0 -8 24 -8 53 0 138 -73 507 -139 702 -17 50 -31 94 -31 99 0 5 21 -10
46 -34 118 -108 318 -145 463 -84 125 52 103 137 -55 210 -77 36 -305 114
-331 114 -8 0 -13 3 -11 8 2 4 38 77 80 162 109 218 130 316 75 355 -30 21
-64 19 -124 -10 -95 -43 -191 -151 -229 -255 -9 -25 -19 -79 -22 -120 l-7 -75
-56 105 c-106 202 -239 398 -381 563 -98 113 -97 108 -26 79 136 -55 298 -37
427 49 91 60 118 109 91 160 -23 42 -67 53 -210 54 -74 0 -177 -4 -229 -9
l-94 -8 6 48 c4 27 10 117 13 200 8 174 -3 242 -43 274 -43 33 -71 26 -128
-33 -116 -120 -156 -312 -97 -462 11 -27 23 -59 27 -70 5 -13 -8 -5 -36 21
-144 135 -397 309 -618 422 l-153 80 98 4 c89 3 107 7 175 40 213 100 326 366
155 362 -62 -1 -165 -39 -314 -116 -74 -37 -135 -68 -138 -68 -2 0 -4 7 -4 15
0 32 -91 289 -126 356 -37 70 -78 109 -115 109 -58 0 -109 -115 -109 -245 0
-132 51 -246 151 -340 28 -26 44 -45 37 -42 -7 3 -69 24 -138 46 -227 74 -495
124 -734 138 -118 6 -120 7 -79 19 176 52 311 204 336 379 12 79 6 116 -23
145 -58 58 -172 -22 -365 -255 -32 -38 -61 -71 -65 -73 -4 -1 -29 26 -56 60
-74 95 -204 228 -253 260 -42 26 -79 33 -109 21z m111 -134 c46 -40 249 -275
269 -312 8 -17 6 -18 -29 -11 -108 19 -223 109 -269 208 -26 56 -44 156 -28
156 5 0 31 -19 57 -41z m674 -10 c-14 -114 -100 -231 -207 -281 -52 -24 -130
-45 -130 -34 0 3 37 51 82 108 90 113 230 258 249 258 8 0 10 -15 6 -51z
m-1339 -194 c5 -104 -15 -173 -72 -247 -33 -43 -112 -106 -121 -96 -13 13 109
376 146 438 20 32 22 33 32 14 6 -10 13 -59 15 -109z m2031 4 c37 -94 112
-341 106 -348 -10 -9 -89 54 -121 96 -68 89 -94 228 -63 333 l13 42 17 -24
c10 -13 31 -57 48 -99z m-2657 -183 c96 -36 402 -195 377 -196 -4 0 -30 -5
-60 -10 -134 -26 -293 47 -371 169 -44 71 -41 73 54 37z m3278 16 c0 -4 -13
-28 -28 -53 -81 -127 -239 -198 -378 -169 -51 11 -54 13 -37 25 45 32 300 159
361 181 74 26 82 28 82 16z m-1420 -183 c834 -75 1582 -490 2086 -1155 745
-986 792 -2334 116 -3369 -112 -172 -212 -295 -372 -456 -239 -242 -458 -404
-737 -547 -339 -173 -639 -265 -1028 -313 -129 -17 -511 -17 -640 0 -564 70
-1034 261 -1480 600 -127 97 -410 377 -505 501 -144 189 -273 397 -355 575
-518 1125 -287 2443 581 3311 491 491 1123 788 1814 853 127 12 390 12 520 0z
m-2423 -223 c81 -120 84 -272 7 -403 -24 -41 -28 -45 -35 -27 -13 36 -29 234
-29 362 0 140 5 146 57 68z m4383 -74 c0 -109 -12 -264 -26 -340 -8 -43 -23
-31 -60 51 -26 55 -29 73 -29 157 0 77 4 104 22 142 27 60 72 120 84 112 5 -3
9 -58 9 -122z m-4576 -397 c65 -7 120 -16 123 -19 9 -9 -100 -65 -150 -77 -66
-16 -171 -7 -232 20 -60 27 -117 69 -110 82 9 14 233 10 369 -6z m5074 7 c17
-11 -19 -43 -88 -78 -107 -54 -263 -43 -365 24 l-40 26 40 8 c115 23 426 36
453 20z m-5738 -570 c107 -74 160 -178 159 -310 -1 -131 -7 -131 -81 4 -71
130 -100 191 -129 273 -30 86 -27 88 51 33z m6090 -34 c-35 -97 -187 -395
-196 -385 -2 2 -8 26 -14 54 -26 138 51 303 173 373 28 16 53 27 56 25 2 -3
-6 -33 -19 -67z m-5970 -447 c0 -17 -69 -98 -107 -124 -92 -64 -233 -88 -328
-57 l-39 13 23 18 c28 23 147 69 308 118 144 44 143 44 143 32z m6050 -68 c58
-19 132 -49 165 -66 l60 -30 -32 -13 c-95 -40 -227 -22 -323 44 -49 34 -120
111 -120 132 0 10 107 -18 250 -67z m-6486 -758 c102 -48 185 -153 205 -260 5
-25 6 -45 3 -45 -22 0 -316 259 -354 313 l-22 30 56 -6 c31 -3 81 -17 112 -32z
m6826 24 c0 -29 -351 -342 -366 -326 -8 8 15 87 42 140 29 57 93 121 149 150
79 41 175 60 175 36z m-6616 -421 c-3 -18 -19 -61 -34 -95 -52 -113 -167 -198
-286 -210 l-58 -6 33 42 c48 60 320 299 343 300 4 1 5 -14 2 -31z m6396 -82
c86 -70 220 -203 220 -218 0 -21 -108 0 -170 33 -101 54 -176 155 -195 263
l-7 40 39 -29 c21 -16 72 -56 113 -89z m-6368 -846 c29 -11 73 -36 97 -55 46
-37 107 -112 98 -121 -6 -6 -217 56 -313 92 -78 29 -140 60 -149 73 -20 33
188 41 267 11z m6433 6 l40 -12 -35 -22 c-67 -42 -423 -162 -437 -148 -11 11
51 87 100 123 28 21 73 45 101 55 59 20 172 22 231 4z m-6197 -376 c-5 -86
-30 -152 -83 -215 -35 -43 -131 -112 -141 -102 -15 14 54 178 144 342 l66 119
9 -34 c5 -19 7 -69 5 -110z m5833 -35 c57 -108 125 -273 115 -282 -11 -11 -88
41 -134 91 -79 87 -114 205 -92 312 l12 56 20 -32 c11 -18 46 -83 79 -145z
m-5297 -734 c26 -12 59 -30 72 -40 l25 -19 -28 -6 c-121 -26 -478 -36 -471
-13 7 19 96 76 147 92 64 21 191 14 255 -14z m4926 3 c47 -18 130 -72 130 -84
0 -10 -127 -20 -185 -15 -27 3 -104 10 -170 16 -66 6 -126 14 -134 19 -18 10
63 59 128 77 59 17 172 10 231 -13z m-4723 -215 c13 -32 18 -69 17 -134 0 -75
-5 -99 -26 -145 -30 -62 -73 -118 -83 -108 -17 16 -1 364 21 471 l6 29 24 -35
c13 -19 31 -55 41 -78z m4328 -25 c16 -140 20 -331 6 -352 -11 -18 -56 35 -84
98 -28 63 -35 193 -13 256 17 50 65 138 72 132 2 -3 11 -63 19 -134z m-3445
-503 c22 -6 19 -10 -40 -43 -183 -101 -382 -189 -397 -174 -10 9 45 92 86 129
40 36 104 73 151 88 31 9 166 9 200 0z m2733 -25 c68 -33 137 -98 167 -156
l22 -43 -34 7 c-48 9 -206 82 -328 151 -95 53 -103 60 -80 67 14 4 64 6 111 5
70 -3 96 -8 142 -31z m-2586 -60 c80 -74 115 -146 121 -249 4 -73 -11 -167
-28 -167 -9 0 -63 117 -90 195 -22 63 -80 259 -80 269 0 16 24 1 77 -48z
m2259 37 c-3 -10 -22 -72 -41 -138 -44 -143 -89 -261 -114 -294 l-18 -24 -14
39 c-21 61 -16 180 10 239 32 74 70 124 121 161 51 38 64 42 56 17z m-1277
-315 c-45 -57 -121 -141 -168 -188 l-86 -85 -3 41 c-7 98 78 233 185 291 52
29 140 56 152 47 1 -2 -34 -49 -80 -106z m264 74 c108 -48 200 -174 214 -294
l6 -52 -29 21 c-57 41 -298 313 -312 352 -4 13 68 -3 121 -27z"/>
<path d="M6070 9213 c-69 -47 -74 -119 -14 -199 22 -30 22 -33 6 -47 -24 -21
-78 -47 -137 -66 -54 -17 -70 -46 -44 -77 16 -20 263 -144 285 -144 15 0 240
171 256 194 10 15 10 38 -1 54 -4 8 -37 17 -72 22 -35 4 -81 15 -101 23 l-38
16 20 43 c11 24 20 63 20 87 0 36 -6 49 -34 77 -28 28 -41 34 -78 34 -25 0
-54 -7 -68 -17z m83 -111 c0 -18 -4 -36 -8 -40 -10 -11 -35 29 -35 56 0 19 5
23 23 20 18 -2 22 -9 20 -36z m55 -210 l62 -28 -55 -42 -54 -43 -62 31 -61 31
45 29 c24 15 48 33 51 39 9 14 4 15 74 -17z"/>
<path d="M6783 9190 c-17 -10 -37 -28 -42 -39 -16 -28 -13 -96 4 -138 8 -19
15 -37 15 -39 0 -10 -112 -34 -160 -34 -31 0 -61 -5 -68 -12 -30 -30 -13 -56
108 -162 66 -58 125 -106 131 -106 5 0 75 28 155 62 118 50 146 66 150 85 8
31 -8 49 -65 68 -25 8 -63 29 -83 45 l-37 31 30 42 c58 83 54 151 -10 194 -42
28 -86 29 -128 3z m84 -86 c7 -18 -12 -64 -27 -64 -12 0 -24 45 -16 65 7 20
35 19 43 -1z m-4 -248 l49 -43 -29 -11 c-15 -5 -44 -17 -64 -25 -35 -16 -35
-16 -82 24 -26 23 -47 44 -47 49 0 4 19 13 43 19 23 6 49 15 57 21 21 14 19
14 73 -34z"/>
<path d="M5376 9051 c-78 -52 -74 -137 10 -210 l37 -33 -20 -26 c-10 -15 -49
-47 -86 -72 -73 -49 -86 -78 -44 -103 28 -18 292 -70 315 -62 17 5 185 225
197 257 8 21 -30 61 -53 54 -46 -13 -96 -18 -138 -11 l-45 6 6 54 c13 101 -29
165 -109 165 -24 0 -53 -8 -70 -19z m90 -96 c3 -14 3 -32 0 -41 -6 -15 -9 -14
-31 6 -27 26 -32 46 -12 53 26 11 37 6 43 -18z m114 -201 c27 -4 50 -8 50 -11
0 -2 -17 -26 -37 -53 -40 -54 -46 -56 -122 -39 l-50 10 42 54 c23 29 48 52 54
50 7 -3 35 -7 63 -11z"/>
<path d="M7448 8971 c-30 -27 -33 -34 -36 -105 l-4 -76 -59 0 c-32 0 -79 5
-104 12 -51 14 -78 5 -83 -29 -2 -11 33 -74 84 -151 81 -124 88 -132 119 -132
38 0 294 38 307 46 4 3 8 18 8 34 0 23 -8 35 -37 54 -21 13 -49 37 -64 52 -53
60 -53 59 -11 88 39 27 82 90 82 121 0 9 -7 31 -15 49 -33 70 -129 89 -187 37z
m106 -77 c3 -9 -5 -25 -22 -41 l-27 -25 -3 27 c-2 15 -1 33 2 41 7 19 42 18
50 -2z m-104 -193 c0 -4 16 -29 35 -54 l35 -45 -43 -7 c-23 -3 -54 -8 -68 -11
-22 -4 -31 3 -62 50 -20 31 -37 58 -37 60 0 3 28 7 63 9 34 2 65 4 70 5 4 1 7
-2 7 -7z"/>
<path d="M4761 8723 c-77 -39 -91 -126 -30 -189 18 -19 48 -39 66 -45 18 -6
33 -16 33 -23 0 -19 -53 -98 -88 -131 -36 -34 -43 -78 -14 -94 16 -9 298 3
328 13 13 5 124 277 124 304 0 44 -40 53 -101 21 -22 -11 -63 -23 -90 -26 -47
-6 -49 -5 -49 18 0 118 -92 196 -179 152z m83 -125 c8 -35 -4 -35 -41 -3 -27
24 -28 25 -8 40 23 18 39 6 49 -37z m200 -150 c-4 -13 -15 -42 -25 -64 -17
-41 -19 -42 -79 -49 -34 -4 -63 -5 -66 -3 -2 3 8 32 23 66 l28 61 50 3 c28 3
56 5 63 6 9 1 11 -5 6 -20z"/>
<path d="M8073 8610 c-37 -22 -58 -58 -68 -118 l-7 -44 -37 6 c-20 4 -67 22
-105 41 -70 35 -96 35 -109 1 -6 -16 86 -303 102 -319 5 -5 80 -18 168 -28
l158 -20 17 21 c20 25 15 43 -25 89 -27 32 -73 119 -65 125 1 1 29 15 61 30
63 30 87 63 87 119 0 39 -28 80 -70 102 -39 20 -69 19 -107 -5z m75 -82 c7 -7
12 -18 12 -25 0 -15 -36 -35 -55 -31 -11 3 -11 8 0 36 15 34 24 39 43 20z
m-185 -164 c42 -6 43 -8 65 -66 l21 -60 -67 7 c-37 4 -67 8 -68 8 -1 1 -11 31
-22 66 l-21 63 24 -6 c14 -4 44 -9 68 -12z"/>
<path d="M6305 8344 c-73 -129 -76 -136 -60 -154 9 -10 30 -22 46 -25 44 -10
45 -25 1 -25 -21 0 -68 -3 -103 -6 l-64 -6 43 27 c24 15 42 34 42 44 0 28
-187 236 -212 236 -18 0 -28 -21 -71 -149 -47 -142 -49 -150 -31 -163 10 -7
33 -13 51 -13 55 0 37 -14 -49 -39 -46 -13 -88 -25 -95 -28 -7 -2 6 14 28 36
28 28 38 44 32 55 -15 26 -231 186 -252 186 -25 0 -25 -2 -47 -179 -9 -73 -12
-137 -7 -141 4 -5 31 -10 58 -12 46 -3 48 -4 25 -15 -14 -6 -53 -27 -87 -46
-35 -20 -63 -34 -63 -32 0 2 11 21 25 41 14 20 25 43 25 50 0 18 -256 146
-283 142 -21 -3 -22 -7 -19 -109 2 -58 7 -130 11 -160 l6 -54 55 2 55 1 -30
-21 c-17 -12 -46 -37 -66 -54 -20 -18 -39 -33 -42 -33 -3 0 1 19 9 42 12 34
12 44 2 54 -7 7 -76 28 -153 48 -185 47 -181 52 -131 -131 21 -76 44 -144 52
-152 11 -12 19 -12 54 2 l40 16 -19 -27 c-11 -15 -36 -45 -55 -67 l-35 -40 6
47 c4 36 2 49 -8 52 -8 3 -79 10 -159 15 -194 13 -190 20 -99 -160 45 -91 75
-139 85 -139 9 0 30 10 46 22 35 24 35 26 -12 -62 l-35 -65 -3 37 c-2 20 -9
42 -17 48 -18 15 -291 -22 -312 -43 -13 -12 -3 -30 79 -137 52 -68 99 -125
105 -127 6 -2 25 9 43 24 l33 27 -8 -25 c-25 -79 -44 -122 -44 -103 -1 12 -9
31 -18 43 l-18 22 -130 -45 c-172 -59 -165 -56 -165 -76 0 -22 214 -210 239
-210 10 0 26 10 34 23 16 22 16 22 15 -13 0 -19 -3 -48 -7 -65 -7 -28 -8 -28
-14 -8 -18 51 -30 49 -161 -27 -132 -76 -151 -91 -143 -113 6 -16 250 -157
272 -157 8 0 21 12 29 28 l15 27 1 -42 c0 -23 3 -50 7 -60 5 -15 2 -15 -19 5
-13 12 -29 22 -35 22 -21 0 -234 -202 -231 -218 2 -12 44 -31 138 -64 154 -53
170 -56 177 -28 8 31 18 24 30 -20 9 -37 3 -54 -12 -30 -16 26 -46 2 -125
-103 -53 -70 -85 -121 -85 -137 0 -24 4 -26 80 -37 44 -6 115 -14 157 -18 75
-7 78 -7 86 16 9 24 9 24 26 -8 20 -41 20 -46 -2 -34 -10 5 -23 6 -30 3 -18
-12 -134 -260 -130 -279 3 -16 16 -18 142 -15 148 4 186 12 186 38 0 16 2 15
20 -1 26 -23 25 -33 -2 -37 -19 -3 -27 -21 -60 -147 -22 -79 -37 -150 -34
-157 8 -21 35 -17 181 23 93 25 136 42 142 54 7 15 11 16 26 4 18 -13 18 -13
-1 -20 -18 -5 -21 -18 -26 -93 -4 -48 -9 -117 -12 -153 -5 -53 -3 -68 11 -79
15 -12 33 -5 151 53 84 42 137 75 142 87 5 13 11 17 21 10 12 -7 12 -11 2 -24
-10 -12 -9 -40 5 -148 19 -146 27 -178 46 -178 24 0 253 186 251 204 -1 12 4
15 14 12 8 -3 17 -6 19 -6 2 0 -1 -8 -6 -17 -17 -27 80 -297 108 -301 25 -4
212 205 212 238 0 13 5 20 13 17 6 -2 11 -11 9 -19 -1 -9 32 -75 74 -147 63
-109 80 -132 97 -129 25 4 169 243 163 270 -2 9 2 19 10 22 9 3 14 -2 14 -14
0 -10 44 -69 97 -130 72 -83 102 -110 117 -108 17 2 30 28 68 138 26 74 45
145 43 156 -3 13 1 24 10 28 10 3 15 -1 15 -13 0 -12 43 -51 121 -110 66 -50
124 -91 128 -91 21 0 30 35 47 173 14 120 15 150 5 157 -10 6 -11 9 -1 15 8 5
16 1 22 -8 12 -22 275 -147 293 -140 18 6 19 43 5 203 -7 78 -15 118 -24 126
-12 8 -11 12 5 22 15 10 19 9 19 -2 0 -8 5 -18 11 -22 16 -9 261 -74 282 -74
32 0 30 29 -9 172 -29 108 -42 142 -56 146 -22 5 -23 15 -3 32 11 9 15 9 15 1
0 -20 42 -28 186 -36 125 -6 142 -5 147 10 7 16 -116 274 -136 287 -6 3 -16 4
-24 1 -11 -4 -12 -1 -1 22 11 25 13 26 25 9 13 -17 19 -17 161 0 85 11 153 24
161 31 17 17 12 26 -97 164 -57 74 -80 96 -98 96 -25 -1 -28 7 -14 40 7 18 8
19 15 3 10 -26 25 -23 175 30 173 61 173 59 26 187 -106 92 -128 106 -141 85
-13 -21 -21 -9 -17 26 4 33 5 34 23 18 23 -20 23 -20 169 66 87 51 120 76 120
90 0 14 -36 39 -136 96 l-137 78 -17 -22 -18 -21 -6 22 c-3 12 -6 33 -6 47 1
23 2 24 14 8 7 -10 21 -18 31 -18 9 0 66 44 126 97 80 70 109 102 107 116 -2
17 -31 30 -147 68 -146 49 -171 51 -171 13 0 -30 -17 -11 -32 36 l-16 49 28
-21 c16 -11 33 -17 40 -13 27 17 189 246 184 260 -6 16 -14 18 -187 40 -130
17 -143 14 -149 -33 -3 -25 -6 -22 -35 31 -17 31 -29 57 -27 57 3 0 16 -7 29
-16 14 -9 32 -14 40 -10 9 3 45 67 81 143 54 114 62 139 51 150 -11 11 -39 12
-158 2 -79 -6 -150 -16 -157 -22 -9 -7 -12 -23 -8 -46 l5 -34 -48 54 c-48 53
-52 71 -11 49 44 -24 55 -8 94 143 41 159 42 165 22 173 -20 8 -289 -66 -303
-84 -10 -11 -9 -22 2 -50 8 -19 15 -36 15 -39 0 -2 -26 17 -57 43 -32 27 -61
51 -66 54 -4 4 14 6 40 6 45 -1 47 0 54 33 4 19 9 91 11 160 3 123 2 126 -19
129 -22 3 -262 -112 -275 -132 -11 -16 -10 -20 17 -60 l25 -36 -83 42 -82 43
48 3 c31 2 50 8 54 18 5 14 -22 257 -33 297 -3 9 -14 17 -26 17 -30 0 -247
-171 -248 -195 0 -10 14 -33 30 -50 l30 -31 -77 24 c-113 34 -112 34 -64 43
25 5 49 13 55 19 8 8 -4 53 -40 158 -43 126 -54 147 -72 147 -24 0 -212 -209
-212 -237 0 -9 19 -28 43 -43 l42 -25 -100 6 c-55 4 -102 8 -104 10 -2 2 9 8
25 14 87 31 87 36 -1 188 -53 91 -83 132 -95 132 -12 0 -41 -41 -95 -136z
m144 -40 c24 -41 41 -78 38 -81 -22 -22 -152 -22 -174 0 -5 6 79 157 88 157 3
0 24 -34 48 -76z m371 -45 c16 -46 30 -85 30 -86 0 -2 -25 -3 -55 -3 -58 0
-129 23 -123 39 4 11 112 139 115 137 1 -1 16 -40 33 -87z m-758 35 c69 -75
74 -85 53 -100 -24 -18 -111 -35 -140 -28 l-23 6 24 71 c32 96 33 97 38 97 3
0 25 -21 48 -46z m-344 -117 l71 -54 -22 -21 c-28 -27 -88 -52 -123 -52 l-27
0 7 73 c7 67 14 107 20 107 1 0 35 -24 74 -53z m1456 -28 c4 -39 10 -77 13
-85 11 -29 -85 -10 -139 28 -16 11 -28 23 -28 27 0 13 131 112 140 106 4 -2
11 -37 14 -76z m-516 -94 c633 -96 1163 -545 1362 -1153 62 -193 74 -275 74
-522 1 -199 -2 -237 -23 -335 -97 -456 -346 -826 -726 -1081 -186 -124 -380
-204 -616 -256 -90 -19 -133 -22 -324 -22 -249 0 -333 13 -546 84 -567 188
-990 668 -1121 1270 -20 92 -22 133 -22 335 0 202 2 243 22 335 154 709 703
1234 1407 1345 113 18 394 18 513 0z m-1198 -93 c0 -16 -56 -61 -100 -81 l-45
-20 -7 22 c-3 12 -6 55 -7 95 l-1 72 80 -40 c44 -22 80 -44 80 -48z m2042 6
c-4 -112 -4 -112 -47 -93 -48 19 -93 52 -105 75 -9 17 -2 24 67 59 43 22 80
40 83 41 3 0 4 -37 2 -82z m-2436 -182 c27 -8 61 -17 77 -20 15 -4 27 -13 27
-21 0 -20 -66 -93 -100 -110 l-27 -14 -22 78 c-31 114 -33 109 45 87z m2728
-33 c-7 -27 -18 -67 -24 -91 l-11 -42 -28 15 c-33 17 -101 92 -101 112 0 7 12
15 28 19 15 3 47 12 72 19 78 23 80 22 64 -32z m-2867 -266 c17 -18 -55 -139
-88 -145 -9 -2 -27 24 -52 73 -20 41 -37 78 -37 82 0 7 169 -2 177 -10z m3123
8 c0 -6 -70 -147 -76 -154 -2 -2 -14 3 -28 12 -27 18 -61 70 -71 109 -6 23 -4
27 22 31 43 6 153 8 153 2z m-3300 -333 c0 -53 -63 -169 -78 -146 -4 6 -29 38
-56 73 -26 34 -46 65 -43 68 7 6 98 20 145 22 25 1 32 -3 32 -17z m3457 2 l32
-6 -57 -73 c-45 -59 -59 -71 -70 -63 -20 17 -49 79 -58 122 l-7 39 64 -7 c35
-4 78 -9 96 -12z m-3591 -458 c-8 -20 -19 -36 -25 -36 -13 0 -144 114 -134
117 4 2 44 16 88 32 l80 28 3 -53 c2 -30 -3 -67 -12 -88z m3654 109 c40 -14
75 -26 76 -28 2 -2 -28 -31 -66 -66 l-70 -63 -20 44 c-23 50 -27 138 -7 138 8
0 47 -11 87 -25z m-3686 -341 c3 -9 6 -42 6 -74 0 -61 -7 -90 -20 -90 -13 0
-150 81 -150 88 1 7 139 90 151 91 4 1 10 -6 13 -15z m3738 -35 l70 -41 -77
-44 c-43 -24 -81 -44 -85 -44 -18 0 -27 108 -14 158 8 27 11 26 106 -29z
m-3709 -344 c20 -43 24 -150 5 -142 -7 2 -46 15 -85 28 -40 12 -73 26 -73 30
0 8 122 119 131 119 3 0 13 -16 22 -35z m3671 -24 c37 -30 63 -58 59 -62 -5
-3 -39 -17 -78 -29 -38 -13 -76 -25 -82 -28 -9 -3 -13 10 -13 47 0 52 26 134
41 129 4 -2 37 -27 73 -57z m-3561 -351 c15 -29 27 -67 27 -83 0 -25 -3 -28
-22 -24 -13 4 -54 9 -91 13 -49 5 -67 10 -63 20 10 27 100 134 110 131 6 -1
23 -27 39 -57z m3456 -4 c28 -35 51 -68 51 -73 0 -9 -171 -35 -179 -27 -15 15
48 164 69 164 5 0 31 -29 59 -64z m-3277 -327 c15 -23 28 -52 28 -64 0 -21 -6
-23 -87 -28 -49 -3 -89 -4 -91 -2 -2 2 15 40 38 84 40 80 41 81 62 66 12 -8
35 -33 50 -56z m3113 -9 c21 -44 37 -81 34 -83 -2 -2 -43 -1 -91 1 -97 4 -101
8 -72 65 16 32 72 97 84 97 3 0 23 -36 45 -80z m-2928 -230 c31 -19 97 -99 89
-107 -2 -3 -43 -15 -90 -28 -93 -25 -93 -25 -77 35 6 19 15 54 21 78 6 23 14
42 18 42 4 0 21 -9 39 -20z m2682 -17 c6 -21 17 -60 25 -88 9 -27 14 -50 13
-51 -4 -4 -166 41 -172 48 -18 18 83 128 117 128 4 0 12 -17 17 -37z m-2382
-233 c45 -26 82 -65 71 -75 -6 -5 -148 -75 -153 -75 -7 0 -6 111 1 149 4 17
12 31 18 31 6 0 34 -14 63 -30z m2114 -60 c3 -47 4 -87 2 -89 -5 -6 -163 71
-163 79 0 11 64 67 95 84 53 27 59 20 66 -74z m-1776 -119 c74 -32 73 -41 -9
-104 -85 -65 -79 -69 -92 62 l-7 73 34 -7 c19 -4 52 -15 74 -24z m1461 12 c-3
-10 -8 -51 -12 -90 -4 -40 -11 -73 -15 -73 -5 0 -41 24 -80 53 l-70 52 28 23
c28 22 101 50 136 51 13 1 17 -4 13 -16z m-1096 -119 c22 -9 40 -21 40 -28 -1
-6 -27 -40 -59 -75 l-58 -64 -27 79 c-15 43 -30 85 -33 92 -7 18 88 16 137 -4z
m755 -5 c-31 -95 -52 -150 -58 -150 -19 0 -132 140 -114 141 1 0 20 7 42 15
22 8 62 14 88 15 45 0 48 -2 42 -21z m-377 -25 c12 -4 22 -10 22 -14 0 -4 -20
-42 -44 -85 l-44 -77 -46 78 c-25 43 -46 82 -46 86 0 15 113 24 158 12z"/>
<path d="M6302 7453 c-33 -59 -88 -164 -122 -233 -34 -69 -64 -127 -66 -129
-2 -2 -50 10 -106 27 -129 39 -384 102 -415 102 -13 0 -26 -7 -29 -15 -9 -22
17 -120 87 -338 34 -104 59 -190 57 -192 -1 -1 -31 -17 -66 -34 -76 -38 -360
-207 -384 -229 -46 -40 -21 -59 282 -215 130 -66 174 -94 172 -106 -2 -9 -12
-43 -22 -76 -37 -115 -110 -419 -105 -436 3 -9 12 -20 21 -23 16 -6 261 63
419 118 55 19 100 34 101 33 57 -113 235 -416 267 -452 14 -17 28 -24 38 -20
17 6 123 191 209 365 29 58 54 107 56 109 1 1 49 -11 106 -27 140 -42 334 -90
391 -98 39 -6 48 -4 53 10 8 22 -21 133 -92 354 -31 95 -55 174 -53 176 2 1
45 24 94 50 118 63 351 204 365 221 7 8 9 22 6 32 -6 20 -175 116 -369 211
-87 43 -107 57 -102 70 15 38 78 265 105 379 29 120 30 147 6 156 -20 8 -382
-98 -506 -147 -12 -5 -30 21 -75 105 -33 61 -94 166 -135 232 -102 165 -107
166 -188 20z m175 -140 c77 -132 133 -236 133 -248 0 -3 -24 -17 -52 -29 -29
-13 -76 -39 -104 -58 l-51 -35 -24 20 c-13 11 -61 38 -106 59 -46 21 -83 43
-83 49 0 20 190 379 200 379 3 0 42 -62 87 -137z m633 -284 c-31 -124 -65
-243 -80 -285 l-9 -22 -90 29 c-50 16 -102 29 -114 29 -21 0 -25 8 -36 55 -7
30 -23 83 -37 117 -13 34 -24 65 -24 69 0 10 410 141 418 134 2 -2 -11 -58
-28 -126z m-1310 71 c165 -44 280 -80 280 -88 0 -4 -11 -38 -24 -77 -13 -38
-27 -89 -30 -111 -7 -41 -9 -42 -54 -48 -26 -4 -78 -19 -117 -35 l-70 -29 -18
41 c-17 40 -117 354 -117 369 0 14 31 9 150 -22z m421 -136 c72 -30 129 -65
129 -79 0 -6 -9 -28 -20 -50 -11 -21 -25 -65 -31 -96 l-11 -58 -47 32 c-25 17
-68 39 -96 49 -46 15 -50 19 -47 45 4 32 51 183 58 183 3 0 32 -11 65 -26z
m460 -54 c15 -41 28 -89 28 -105 1 -28 -3 -32 -42 -42 -24 -7 -66 -28 -94 -47
-50 -34 -51 -35 -57 -13 -3 12 -6 31 -6 42 0 11 -13 48 -29 82 -25 53 -27 63
-15 74 28 23 159 89 173 86 8 -1 27 -36 42 -77z m-246 -240 c0 -68 -4 -103
-16 -124 l-16 -28 -16 41 c-10 25 -17 70 -17 111 0 41 7 86 17 111 l16 41 16
-28 c12 -21 16 -56 16 -124z m-392 -9 c9 -27 32 -72 51 -99 l33 -50 -49 -5
c-27 -4 -75 -18 -106 -32 l-56 -26 -18 23 c-35 44 -89 161 -79 171 13 13 161
66 186 66 15 1 25 -11 38 -48z m857 23 c45 -14 84 -32 87 -40 5 -14 -51 -141
-79 -177 -13 -17 -16 -17 -70 8 -31 14 -79 28 -107 32 l-50 6 23 31 c29 38 61
102 70 139 8 34 22 34 126 1z m-647 -83 c48 -54 76 -111 54 -111 -25 0 -114
59 -139 92 -29 38 -58 92 -58 108 0 21 98 -40 143 -89z m429 47 c-10 -24 -36
-60 -56 -81 -38 -38 -110 -81 -127 -75 -14 5 28 82 67 122 32 33 124 89 132
81 2 -2 -5 -23 -16 -47z m577 -124 c102 -52 190 -99 194 -103 4 -4 -45 -39
-110 -78 -145 -86 -273 -157 -277 -152 -1 2 -11 24 -22 49 -10 24 -36 70 -56
102 l-37 57 34 52 c18 28 43 78 55 110 13 32 25 59 28 59 3 0 89 -43 191 -96z
m-1483 14 c20 -40 47 -87 60 -105 l24 -32 -29 -44 c-17 -24 -42 -72 -57 -108
-15 -35 -29 -66 -30 -67 -3 -5 -353 173 -379 191 -16 13 -14 15 21 37 56 34
348 200 351 200 1 0 19 -33 39 -72z m472 -120 c17 -7 32 -16 32 -20 0 -12
-100 -38 -145 -38 -46 0 -145 26 -145 39 0 4 19 14 43 21 23 7 47 14 52 16 19
7 130 -5 163 -18z m540 0 c17 -7 32 -16 32 -20 0 -12 -100 -38 -145 -38 -46 0
-145 26 -145 39 0 4 19 14 43 21 23 7 47 14 52 16 19 7 130 -5 163 -18z m-793
-102 c33 -14 77 -26 97 -26 l37 0 -35 -51 c-18 -28 -42 -73 -51 -101 -18 -50
-18 -50 -55 -44 -34 6 -94 24 -155 47 l-23 8 26 58 c38 88 74 145 87 139 7 -2
39 -16 72 -30z m933 -14 c29 -47 75 -143 70 -147 -16 -11 -147 -56 -177 -61
-38 -6 -40 -5 -47 22 -9 38 -41 101 -71 140 l-23 31 50 6 c28 3 75 17 103 31
29 13 55 25 59 25 3 1 20 -21 36 -47z m-618 -18 c-25 -65 -109 -149 -173 -173
-77 -29 35 133 125 181 48 25 60 23 48 -8z m238 7 c49 -26 117 -97 137 -143
20 -48 19 -49 -10 -38 -70 27 -142 96 -171 165 -17 41 -9 43 44 16z m-113
-161 c0 -68 -4 -103 -16 -124 l-16 -28 -16 41 c-10 25 -17 70 -17 111 0 41 7
86 17 111 l16 41 16 -28 c12 -21 16 -56 16 -124z m-94 -186 l20 -34 -43 -27
c-76 -48 -147 -78 -159 -66 -13 13 -56 139 -61 176 -3 26 1 30 47 45 28 10 70
31 95 49 l45 31 17 -70 c10 -39 27 -85 39 -104z m326 93 c39 -10 43 -14 43
-42 0 -36 -48 -185 -60 -185 -15 0 -141 60 -170 80 l-29 21 25 48 c19 38 44
128 44 158 0 2 23 -13 52 -32 28 -20 71 -41 95 -48z m392 -34 c32 -92 101
-318 101 -333 0 -4 -60 7 -132 26 -182 47 -298 83 -298 93 0 4 11 39 24 78 13
38 27 88 31 110 6 39 8 41 53 47 34 5 174 53 188 65 1 1 15 -38 33 -86z
m-1091 21 c50 -6 51 -7 57 -48 4 -22 21 -76 37 -119 17 -43 28 -80 26 -83 -12
-12 -418 -137 -418 -129 0 24 88 352 109 407 l10 27 65 -24 c35 -13 87 -27
114 -31z m576 -249 c68 -32 76 -38 70 -58 -12 -43 -185 -367 -195 -367 -12 0
-219 363 -219 384 0 2 33 20 73 40 39 20 85 47 102 60 l29 24 31 -24 c17 -13
66 -40 109 -59z"/>
<path d="M4229 8227 c-22 -15 -39 -38 -49 -65 -14 -40 -13 -46 5 -80 22 -41
91 -82 138 -82 28 0 29 -1 23 -37 -4 -21 -22 -69 -40 -108 -35 -72 -36 -89 -4
-106 15 -8 50 0 161 37 78 25 148 52 156 60 20 18 55 308 41 335 -16 28 -46
23 -98 -17 -43 -32 -103 -64 -122 -64 -4 0 -15 20 -24 45 -23 58 -76 105 -120
105 -18 0 -48 -10 -67 -23z m83 -84 c8 -10 18 -26 22 -37 5 -16 3 -17 -21 -11
-42 10 -59 30 -43 49 16 20 23 20 42 -1z m243 -167 l-7 -65 -61 -20 c-33 -12
-62 -20 -63 -18 -2 1 2 33 9 70 8 49 15 67 27 67 8 0 33 9 55 19 22 10 42 17
43 15 2 -1 1 -32 -3 -68z"/>
<path d="M8559 8087 c-28 -19 -69 -74 -82 -111 -5 -15 -88 32 -133 76 -32 31
-48 39 -70 36 l-29 -3 2 -155 c1 -85 5 -165 8 -176 4 -17 35 -34 145 -78 77
-31 151 -56 165 -56 40 0 47 34 19 95 -13 29 -27 72 -30 96 l-6 44 63 12 c111
21 158 100 109 180 -21 36 -66 63 -103 63 -13 0 -39 -10 -58 -23z m81 -83 c16
-19 -1 -38 -42 -48 -33 -8 -35 2 -7 38 24 30 32 32 49 10z m-238 -103 l55 -24
6 -61 c3 -33 4 -62 3 -63 -3 -4 -109 38 -117 46 -9 8 -19 133 -10 129 3 -2 32
-14 63 -27z"/>
<path d="M4181 7646 c-12 -18 -42 -53 -67 -76 l-46 -42 -44 50 c-54 62 -97 79
-146 59 -51 -21 -78 -61 -78 -113 0 -80 72 -130 170 -117 l40 6 0 -62 c0 -33
-5 -81 -12 -106 -14 -52 -5 -78 30 -83 13 -2 70 28 152 82 129 85 130 86 130
123 -1 64 -37 283 -50 298 -22 26 -57 18 -79 -19z m-231 -121 l23 -25 -36 0
c-38 0 -52 12 -43 35 8 22 30 18 56 -10z m263 -98 l7 -47 -55 -37 c-31 -20
-57 -34 -59 -32 -3 2 -6 32 -7 67 l-3 63 50 38 c55 42 54 43 67 -52z"/>
<path d="M8612 7537 c-13 -16 -74 -307 -68 -323 5 -14 232 -187 258 -197 10
-3 26 1 38 11 20 16 21 22 11 75 -6 32 -8 78 -4 103 l6 45 53 -7 c99 -12 164
31 164 108 0 51 -23 94 -60 113 -58 30 -116 13 -168 -51 l-30 -36 -31 23 c-28
21 -50 49 -95 122 -18 29 -56 37 -74 14z m366 -175 c4 -26 -17 -37 -54 -28
l-27 7 24 25 c27 29 53 28 57 -4z m-286 -5 c13 -12 35 -32 50 -43 l28 -22 -13
-62 -12 -61 -50 37 c-28 21 -52 39 -54 40 -4 4 20 134 25 134 2 0 13 -10 26
-23z"/>
<path d="M3958 7069 c-10 -5 -18 -15 -18 -22 0 -17 -45 -108 -68 -136 l-19
-23 -53 36 c-41 28 -62 36 -97 36 -106 0 -153 -137 -71 -205 29 -25 38 -27 93
-22 33 3 69 8 81 12 29 9 45 -31 52 -125 5 -83 13 -100 48 -100 17 0 51 31
128 118 58 64 106 123 106 130 0 19 -111 274 -128 295 -17 19 -29 21 -54 6z
m73 -267 c8 -20 2 -31 -38 -73 l-47 -51 -12 44 c-6 25 -16 53 -22 63 -8 16 -3
29 31 72 l42 53 18 -42 c11 -24 23 -53 28 -66z m-287 53 c24 -18 12 -35 -24
-35 -32 0 -45 13 -36 35 7 19 35 19 60 0z"/>
<path d="M8822 6918 c-5 -7 -40 -73 -77 -147 -55 -110 -65 -138 -57 -155 6
-12 50 -70 99 -131 67 -84 95 -111 115 -113 33 -4 43 14 51 89 4 45 24 105 42
126 1 2 20 -6 43 -17 103 -50 194 -5 194 96 0 58 -31 100 -83 114 -33 9 -46 8
-86 -10 -26 -11 -55 -28 -65 -36 -16 -15 -19 -13 -46 30 -16 25 -35 67 -42 93
-16 60 -26 73 -55 73 -12 0 -27 -6 -33 -12z m73 -323 c-14 -30 -27 -55 -29
-55 -2 0 -23 23 -45 51 l-40 51 30 60 30 60 39 -56 39 -56 -24 -55z m245 70
c0 -28 -25 -34 -62 -14 -21 11 -21 12 -3 25 10 8 29 14 42 14 18 0 23 -6 23
-25z"/>
<path d="M3866 6408 c-9 -12 -16 -43 -16 -68 0 -38 -31 -130 -43 -130 -2 0
-19 8 -38 17 -20 11 -56 18 -87 18 -48 0 -57 -4 -83 -33 -22 -25 -29 -42 -29
-75 0 -118 121 -164 218 -82 28 23 30 24 45 7 21 -23 67 -122 67 -144 0 -28
35 -57 60 -51 28 7 164 275 156 307 -4 11 -48 73 -99 136 -98 122 -123 139
-151 98z m115 -199 l42 -50 -28 -60 c-26 -53 -45 -75 -45 -50 0 5 -16 30 -35
55 l-34 45 27 55 c15 31 27 56 28 56 1 0 21 -23 45 -51z m-265 -59 c24 -9 25
-13 13 -25 -26 -25 -69 -23 -69 3 0 33 13 38 56 22z"/>
<path d="M8774 6168 c-54 -61 -103 -117 -107 -125 -9 -15 105 -294 128 -313
28 -23 50 -6 86 70 20 41 45 83 56 93 20 17 21 17 49 -6 44 -37 69 -47 114
-47 34 0 48 6 76 34 29 29 34 41 34 81 0 40 -5 52 -34 81 -29 29 -41 34 -80
34 -26 0 -63 -7 -82 -15 l-35 -14 -15 36 c-9 19 -18 68 -21 107 -11 134 -37
132 -169 -16z m91 -219 c-18 -20 -35 -42 -37 -50 -7 -19 -10 -14 -40 56 l-25
60 45 53 45 52 22 -67 23 -68 -33 -36z m250 6 c0 -25 -33 -30 -60 -10 -17 14
-18 17 -5 25 25 17 65 8 65 -15z"/>
<path d="M3952 5763 c-6 -11 -5 -42 1 -80 7 -40 7 -76 1 -100 -8 -35 -11 -38
-39 -33 -115 17 -185 -24 -185 -110 0 -86 82 -142 164 -110 14 5 42 27 62 49
l38 40 28 -20 c15 -11 46 -49 70 -84 35 -54 47 -65 70 -65 20 0 31 6 37 23 17
47 63 296 58 311 -3 8 -60 55 -126 105 -123 93 -161 109 -179 74z m166 -178
c23 -16 42 -38 42 -47 0 -22 -20 -118 -25 -118 -2 0 -14 10 -27 23 -13 12 -35
31 -49 42 -25 20 -26 22 -16 82 7 42 14 60 22 55 6 -4 30 -20 53 -37z m-218
-132 c9 -8 -43 -44 -59 -41 -23 5 -26 45 -4 51 18 4 53 -1 63 -10z"/>
<path d="M8627 5557 c-81 -52 -130 -90 -133 -103 -7 -29 33 -304 47 -321 23
-27 57 -15 89 32 29 42 87 95 105 95 4 0 25 -20 47 -45 51 -57 98 -74 151 -51
29 12 43 26 57 60 25 55 18 94 -22 133 -25 24 -39 29 -101 33 l-72 5 -3 45
c-3 38 5 88 24 151 6 20 -21 49 -44 49 -9 0 -75 -37 -145 -83z m73 -114 c0
-27 2 -57 5 -68 4 -15 -7 -28 -49 -56 l-54 -36 -9 68 -9 69 50 34 c28 19 54
35 59 35 4 1 7 -20 7 -46z m208 -167 c8 -38 -17 -42 -51 -8 l-32 33 40 -3 c29
-2 41 -8 43 -22z"/>
<path d="M4212 5168 c-17 -17 -15 -35 13 -103 13 -33 25 -74 25 -92 0 -31 -2
-33 -51 -39 -66 -9 -111 -40 -128 -89 -12 -35 -11 -45 2 -77 18 -43 68 -78
111 -78 57 0 93 36 143 138 4 10 95 -47 135 -84 26 -24 52 -44 58 -44 5 0 19
9 30 20 18 18 20 30 16 78 -3 31 -8 100 -12 153 -3 52 -9 101 -13 107 -8 13
-277 122 -301 122 -9 0 -21 -5 -28 -12z m184 -142 c55 -22 60 -27 66 -63 4
-21 7 -52 7 -68 l1 -31 -65 31 c-63 29 -65 31 -65 70 0 22 -3 50 -6 63 -8 27
-10 27 62 -2z m-166 -191 c0 -3 -7 -17 -16 -30 -20 -30 -40 -32 -54 -6 -8 16
-6 22 7 30 19 11 63 15 63 6z"/>
<path d="M8335 5010 c-81 -27 -152 -53 -156 -57 -14 -14 -47 -316 -37 -335 14
-28 56 -22 96 13 42 38 121 74 132 62 4 -4 13 -25 19 -45 17 -52 72 -98 117
-98 70 0 124 55 124 125 0 61 -82 125 -162 125 -25 0 -15 47 29 138 19 40 32
79 29 87 -14 36 -40 34 -191 -15z m39 -132 c-8 -29 -14 -59 -14 -68 0 -13
-108 -65 -117 -56 -2 2 0 32 4 67 l8 64 60 22 c33 12 63 22 66 22 3 1 0 -22
-7 -51z m156 -193 c13 -15 3 -45 -16 -45 -14 0 -44 38 -44 56 0 14 46 6 60
-11z"/>
<path d="M4616 4655 c-23 -24 -20 -50 13 -87 35 -41 74 -116 68 -132 -3 -7
-23 -18 -45 -24 -56 -17 -102 -71 -102 -121 0 -64 61 -121 129 -121 58 0 121
82 121 159 0 22 1 22 75 4 11 -2 48 -19 83 -36 l62 -31 22 22 22 22 -48 148
c-26 81 -54 153 -60 160 -7 7 -67 19 -137 27 -68 8 -138 17 -156 20 -21 4 -36
0 -47 -10z m249 -105 c19 0 27 -10 44 -62 12 -34 21 -65 21 -68 0 -4 -23 -1
-52 6 -29 8 -60 14 -70 14 -10 0 -18 6 -18 14 0 8 -9 36 -20 62 l-20 47 46 -7
c26 -3 57 -6 69 -6z m-155 -234 c0 -8 -9 -24 -19 -37 -19 -23 -20 -23 -38 -6
-17 18 -17 19 6 38 27 22 51 25 51 5z"/>
<path d="M7819 4553 c-47 -3 -71 -9 -81 -21 -18 -21 -118 -270 -118 -294 0 -9
9 -23 21 -31 19 -14 26 -13 73 9 29 13 73 27 99 30 l45 6 7 -48 c4 -27 12 -58
18 -69 43 -87 139 -98 202 -23 52 62 19 151 -73 193 -20 10 -38 19 -40 20 -8
7 43 89 83 135 50 56 49 54 35 81 -10 17 -21 19 -108 17 -53 -1 -127 -3 -163
-5z m87 -147 l-31 -63 -60 -6 c-33 -3 -61 -4 -62 -3 -2 1 8 29 21 62 l24 59
54 6 c29 3 60 6 69 7 14 2 11 -10 -15 -62z m104 -211 c11 -13 11 -19 -3 -32
-22 -22 -47 -1 -47 39 0 25 3 27 18 19 10 -5 25 -17 32 -26z"/>
<path d="M5271 4289 c-68 -10 -130 -24 -137 -30 -27 -22 -16 -57 25 -83 37
-24 111 -102 111 -118 0 -4 -4 -8 -10 -8 -5 0 -28 -16 -50 -36 -41 -37 -62
-87 -53 -126 13 -54 90 -104 141 -92 68 17 97 63 97 154 l0 55 53 3 c29 2 75
-3 101 -11 59 -17 91 -8 91 27 0 15 -36 80 -85 156 -98 151 -72 141 -284 109z
m185 -125 c20 -31 34 -57 32 -59 -8 -7 -138 -12 -138 -5 0 5 -15 29 -34 53
l-34 45 66 10 c37 5 68 10 70 11 1 0 18 -24 38 -55z m-156 -239 c0 -31 -3 -35
-25 -35 -30 0 -33 24 -8 52 24 27 33 22 33 -17z"/>
<path d="M7115 4133 c-56 -74 -95 -136 -95 -149 0 -35 30 -46 87 -33 42 9 125
5 144 -7 4 -2 3 -21 -2 -41 -12 -55 0 -109 31 -143 24 -26 35 -30 80 -30 46 0
56 4 87 35 33 33 35 39 31 87 -5 46 -11 57 -52 96 l-47 45 33 35 c18 19 57 50
86 69 54 35 68 67 38 92 -12 10 -278 71 -311 71 -8 0 -57 -57 -110 -127z m208
16 c31 -7 57 -15 57 -18 -1 -3 -20 -27 -44 -53 l-44 -48 -61 13 -60 12 40 53
c22 28 43 52 48 52 4 0 33 -5 64 -11z m64 -313 c-4 -9 -15 -16 -26 -16 -21 0
-29 21 -23 58 l5 24 25 -25 c15 -15 22 -31 19 -41z"/>
<path d="M5882 4079 c-84 -36 -147 -69 -153 -80 -16 -30 5 -55 60 -74 27 -9
66 -31 87 -49 l38 -33 -34 -41 c-24 -30 -34 -54 -38 -90 -4 -43 -1 -53 24 -81
45 -50 124 -55 171 -11 35 32 44 82 27 147 -12 46 -12 58 -2 64 21 13 105 29
151 29 24 0 48 5 55 12 27 27 12 55 -68 127 -102 93 -160 141 -168 141 -4 0
-71 -28 -150 -61z m205 -103 l32 -29 -66 -23 -66 -23 -41 36 c-23 20 -42 40
-44 43 -1 4 23 18 55 32 64 28 59 29 130 -36z m-107 -262 c0 -28 -4 -34 -20
-34 -28 0 -35 25 -16 55 21 32 36 24 36 -21z"/>
<path d="M6496 4020 c-83 -66 -126 -107 -126 -119 0 -32 28 -51 74 -51 43 0
132 -25 141 -40 3 -4 -5 -29 -16 -55 -45 -101 2 -185 102 -185 42 0 55 5 79
29 16 16 32 41 36 56 9 35 -10 97 -42 134 l-25 31 46 29 c26 16 69 35 97 42
52 14 83 44 73 71 -6 16 -274 158 -298 158 -8 0 -71 -45 -141 -100z m263 -65
c-2 -2 -28 -19 -57 -38 l-52 -36 -55 25 c-30 14 -55 27 -55 29 0 2 23 22 51
44 l51 40 60 -30 c33 -17 58 -32 57 -34z m-74 -245 c18 -35 13 -50 -16 -50
-25 0 -32 20 -20 53 13 34 17 34 36 -3z"/>
<path d="M3680 9460 c0 -5 18 -14 41 -20 22 -6 58 -27 80 -47 51 -47 66 -99
79 -283 10 -150 20 -200 50 -261 20 -37 98 -114 107 -105 3 3 -11 38 -31 79
-37 72 -37 75 -51 262 -18 249 -43 318 -135 365 -41 21 -140 28 -140 10z"/>
<path d="M9440 9074 c-17 -59 -65 -107 -127 -128 -26 -9 -115 -20 -198 -26
-169 -11 -233 -26 -292 -69 -43 -31 -92 -91 -74 -91 6 0 42 16 81 36 68 34 74
36 233 45 234 13 297 30 361 98 32 33 57 112 49 154 -8 40 -19 33 -33 -19z"/>
<path d="M2743 8210 c-44 -27 -41 -34 11 -27 114 16 176 -38 276 -238 40 -79
89 -164 111 -189 39 -44 126 -96 161 -96 29 0 21 14 -34 55 -58 45 -98 103
-152 225 -70 158 -126 234 -197 271 -51 26 -133 25 -176 -1z"/>
<path d="M9605 7743 c-52 -12 -115 -35 -125 -48 -10 -11 5 -13 92 -12 102 1
105 0 243 -53 119 -45 153 -54 226 -58 94 -5 140 10 187 61 23 25 54 98 46
106 -2 3 -23 -14 -47 -36 -57 -55 -76 -63 -147 -63 -46 0 -96 12 -208 49 -141
47 -224 64 -267 54z"/>
<path d="M2394 6724 c-37 -18 -90 -71 -81 -80 3 -3 26 3 50 15 55 27 119 27
173 0 24 -11 91 -63 151 -115 124 -110 187 -149 260 -164 50 -11 123 -5 123 9
0 4 -33 17 -72 29 -78 23 -101 39 -265 186 -138 124 -251 164 -339 120z"/>
<path d="M9730 6411 c0 -5 26 -17 58 -26 81 -23 131 -55 225 -143 155 -146
222 -185 313 -185 58 0 124 31 150 71 22 34 12 37 -37 12 -97 -50 -174 -23
-324 112 -107 96 -161 134 -216 153 -46 17 -169 20 -169 6z"/>
<path d="M2632 5209 c-47 -23 -83 -66 -100 -116 -15 -44 0 -42 41 3 70 81 141
84 347 14 81 -27 172 -52 202 -56 62 -7 151 14 189 44 22 19 21 19 -87 18
-105 0 -113 1 -214 41 -206 80 -295 93 -378 52z"/>
<path d="M9480 5131 c0 -5 23 -26 50 -47 64 -49 83 -78 168 -254 97 -200 159
-262 267 -263 51 -1 129 28 120 44 -3 4 -28 5 -54 2 -39 -4 -59 -1 -96 17 -59
29 -90 71 -170 233 -35 70 -80 148 -99 172 -47 57 -186 129 -186 96z"/>
<path d="M8760 4045 c0 -2 16 -35 36 -72 35 -67 35 -72 49 -258 14 -192 20
-227 48 -282 37 -70 132 -122 198 -108 41 9 36 20 -17 35 -62 18 -110 66 -129
133 -8 28 -19 117 -25 197 -10 159 -20 205 -56 266 -30 53 -104 116 -104 89z"/>
<path d="M3995 4014 c-65 -39 -130 -53 -305 -63 -194 -11 -245 -25 -306 -86
-44 -44 -66 -108 -57 -160 8 -37 16 -31 36 24 22 62 71 106 140 125 28 9 118
20 198 25 167 11 238 32 301 89 74 67 71 93 -7 46z"/>
<path d="M7685 3253 c8 -90 2 -114 -69 -318 -37 -104 -46 -143 -46 -195 1
-105 45 -177 127 -205 21 -7 40 -11 42 -9 3 2 -14 23 -36 47 -22 23 -46 52
-52 64 -23 45 -13 130 34 270 71 216 77 292 30 383 -30 57 -38 47 -30 -37z"/>
<path d="M5085 3269 c-48 -64 -110 -104 -245 -163 -113 -49 -185 -99 -233
-159 -40 -48 -49 -137 -22 -198 24 -53 39 -50 30 6 -16 111 40 175 239 274
191 94 255 154 281 264 11 41 -6 33 -50 -24z"/>
<path d="M6385 3013 c-25 -85 -49 -126 -118 -201 -173 -186 -207 -241 -207
-333 0 -62 29 -130 66 -154 35 -23 39 -14 15 34 -27 52 -27 122 0 177 11 24
65 94 120 156 106 121 157 207 160 273 6 117 -10 138 -36 48z"/>
<path d="M3200 11940 c-11 -7 -4 -60 39 -312 29 -166 57 -307 61 -312 16 -16
40 3 40 32 0 52 31 133 64 169 45 49 104 55 204 20 55 -19 74 -22 82 -13 14
18 8 24 -200 197 -279 233 -274 229 -290 219z m350 -333 c0 -2 -16 -1 -36 1
-72 9 -157 -46 -186 -117 -6 -14 -12 -21 -14 -16 -5 14 -64 361 -64 375 0 6
68 -46 150 -115 83 -69 150 -127 150 -128z"/>
<path d="M9349 11753 c-129 -107 -237 -200 -241 -206 -4 -6 -2 -17 3 -23 7 -9
27 -6 81 13 100 35 159 29 204 -20 33 -36 64 -117 64 -169 0 -29 24 -48 40
-32 7 8 110 575 110 608 0 39 -44 11 -261 -171z m167 -103 c-28 -157 -35 -181
-44 -159 -29 72 -114 126 -187 117 -34 -4 -35 -3 -18 14 57 56 278 233 281
224 1 -6 -13 -94 -32 -196z"/>
<path d="M2498 11468 c-4 -11 164 -561 180 -588 5 -8 15 -15 23 -15 10 0 16
22 21 82 7 87 21 124 62 162 33 31 117 39 193 18 46 -12 55 -12 65 0 9 11 8
17 -3 27 -28 26 -510 326 -524 326 -7 0 -15 -5 -17 -12z m236 -173 l156 -100
-47 -11 c-27 -6 -58 -16 -70 -23 -29 -15 -70 -69 -78 -103 -4 -16 -11 -28 -15
-28 -4 0 -10 12 -14 28 -3 15 -28 98 -55 185 -27 87 -46 157 -42 155 4 -2 78
-48 165 -103z"/>
<path d="M10016 11319 c-138 -87 -254 -163 -260 -169 -6 -6 -5 -14 2 -23 10
-12 20 -12 65 0 76 21 160 13 193 -18 41 -38 55 -75 62 -162 5 -60 11 -82 21
-82 8 0 18 7 23 15 16 27 184 577 180 588 -2 7 -11 12 -20 11 -9 0 -129 -72
-266 -160z m173 -76 c-27 -87 -52 -170 -55 -185 -4 -16 -10 -28 -14 -28 -4 0
-11 12 -15 28 -8 34 -49 88 -78 103 -12 7 -43 17 -70 23 l-49 11 159 102 c87
55 161 101 164 102 4 1 -15 -70 -42 -156z"/>
<path d="M1870 10913 c1 -10 58 -142 129 -293 99 -213 132 -275 146 -275 17 0
18 10 19 102 1 86 4 106 22 130 37 50 78 64 179 61 83 -3 90 -2 90 16 0 16
-53 45 -275 148 -151 70 -283 128 -292 128 -11 0 -18 -7 -18 -17z m288 -153
l141 -65 -52 -18 c-67 -23 -103 -59 -124 -123 l-16 -53 -60 127 c-32 70 -69
150 -82 179 l-23 51 38 -16 c21 -9 101 -46 178 -82z"/>
<path d="M10620 10802 c-184 -86 -276 -134 -278 -145 -2 -9 0 -17 5 -18 4 0
52 -1 105 -2 80 -2 101 -6 125 -23 49 -36 64 -78 61 -176 -4 -161 13 -143 165
185 70 152 127 283 127 291 0 9 -8 16 -17 16 -10 0 -142 -58 -293 -128z m216
6 c-13 -29 -51 -110 -83 -180 l-60 -127 -16 53 c-21 64 -57 100 -124 123 l-52
18 177 82 c97 45 178 82 179 83 1 0 -9 -24 -21 -52z"/>
<path d="M1333 10303 c-7 -3 -13 -11 -13 -18 0 -13 309 -508 330 -529 6 -6 15
-4 23 2 12 10 12 20 0 65 -21 76 -13 160 18 193 38 41 76 56 161 62 136 9 118
33 -72 92 -232 72 -425 132 -430 135 -3 1 -11 0 -17 -2z m294 -134 c79 -24
143 -47 143 -50 0 -4 -12 -10 -27 -14 -35 -8 -89 -49 -105 -78 -6 -12 -17 -43
-23 -69 l-10 -48 -100 157 c-55 86 -101 160 -103 164 -2 5 16 2 40 -5 24 -7
107 -33 185 -57z"/>
<path d="M857 9598 c-3 -10 67 -101 190 -249 108 -129 200 -237 206 -241 6 -4
17 -2 23 3 9 7 6 27 -13 81 -35 100 -29 159 20 204 36 33 117 64 169 64 29 0
48 24 32 40 -5 5 -130 30 -279 55 -356 62 -341 60 -348 43z m298 -82 c153 -28
176 -35 154 -44 -72 -29 -126 -114 -117 -186 2 -20 3 -36 2 -36 -1 0 -59 68
-128 150 -87 102 -121 150 -109 150 10 -1 99 -16 198 -34z"/>
</g>
</svg>
