<?xml version="1.0" standalone="no"?>
<!DOCTYPE svg PUBLIC "-//W3C//DTD SVG 20010904//EN"
 "http://www.w3.org/TR/2001/REC-SVG-20010904/DTD/svg10.dtd">
<svg version="1.0" xmlns="http://www.w3.org/2000/svg"
 width="1000.000000pt" height="1280.000000pt" viewBox="0 0 1000.000000 1280.000000"
 preserveAspectRatio="xMidYMid meet">
<metadata>
Created by potrace 1.15, written by Peter Selinger 2001-2017
</metadata>
<g transform="translate(0.000000,1280.000000) scale(0.100000,-0.100000)"
fill="#000000" stroke="none">
<path d="M4859 12643 c-86 -92 -161 -224 -268 -475 -81 -189 -76 -184 -90 -92
-22 143 -51 248 -94 339 -36 77 -41 98 -40 148 3 69 -10 74 -57 21 -69 -79
-234 -468 -261 -617 -13 -69 -29 -90 -29 -36 0 40 -22 135 -83 364 -40 151
-51 207 -51 272 -1 91 -8 93 -51 19 -53 -91 -101 -286 -130 -521 -20 -167 -62
-424 -74 -456 l-9 -24 -7 30 c-39 166 -93 350 -155 528 -22 65 -55 144 -72
175 -78 142 -141 232 -163 232 -19 0 -49 -88 -68 -195 -20 -112 -24 -150 -42
-407 -15 -211 -20 -242 -36 -232 -5 3 -85 103 -178 222 -171 221 -280 350
-308 366 -39 21 -39 -59 -3 -289 10 -66 26 -174 35 -240 31 -232 103 -495 224
-813 43 -114 99 -265 126 -337 49 -134 96 -242 230 -523 43 -89 75 -166 71
-169 -12 -13 -88 73 -219 247 -160 213 -386 450 -430 450 -17 0 -27 5 -27 14
0 23 -43 68 -184 194 -159 143 -203 178 -236 187 -14 4 -149 73 -300 154 -210
111 -286 157 -323 194 -50 49 -67 52 -67 13 0 -31 18 -73 79 -181 28 -49 51
-97 51 -106 0 -9 6 -19 13 -22 15 -6 80 -123 75 -136 -2 -5 -52 4 -113 20
-144 37 -271 52 -394 47 -124 -5 -134 -12 -96 -70 68 -103 275 -333 326 -362
40 -23 42 -26 -59 94 -75 88 -169 226 -174 255 -3 18 6 21 86 34 79 13 99 12
171 -2 93 -17 211 -64 278 -108 25 -16 80 -75 126 -133 95 -121 111 -137 111
-109 0 21 -72 146 -167 289 -33 51 -63 106 -67 124 -3 18 -29 72 -56 120 -28
48 -50 93 -50 99 0 7 16 3 42 -10 23 -12 72 -34 108 -48 36 -15 135 -70 220
-123 85 -52 180 -109 210 -126 66 -38 193 -147 436 -374 239 -224 344 -344
344 -395 0 -15 6 -23 17 -23 48 0 176 -189 218 -323 32 -99 31 -107 -2 -75
-16 14 -41 34 -57 44 -28 17 -29 17 -43 -2 -32 -44 18 -186 93 -264 68 -69 73
-45 10 43 -24 34 -51 76 -60 94 -16 33 -22 83 -8 83 4 0 38 -27 75 -60 38 -33
73 -60 78 -60 22 0 20 34 -6 91 -14 33 -29 85 -32 116 l-6 56 78 -66 c43 -37
81 -67 85 -67 4 0 -8 37 -26 83 -19 45 -34 92 -34 104 0 36 22 40 44 8 41 -56
74 -90 82 -82 5 4 7 39 6 78 -3 55 0 69 11 69 20 0 35 -21 77 -103 19 -39 40
-70 45 -69 6 1 11 54 13 127 1 69 6 125 11 125 27 0 111 -129 111 -170 0 -25
29 -38 41 -19 5 8 9 65 9 127 0 61 4 112 9 112 13 0 29 -47 40 -117 12 -74 25
-103 50 -103 21 0 30 39 31 130 1 68 19 124 42 128 27 5 48 -40 58 -128 11
-100 17 -120 35 -120 15 0 29 43 40 122 7 55 42 112 71 116 38 6 49 -23 46
-124 -2 -86 -1 -94 22 -121 16 -18 28 -25 34 -18 6 6 12 58 14 117 3 120 17
147 74 151 25 2 29 -2 32 -26 2 -15 -6 -69 -18 -120 -22 -95 -24 -158 -4 -164
6 -2 30 38 53 89 70 157 80 169 128 152 l28 -9 5 -122 c3 -81 9 -126 18 -135
17 -17 25 -3 51 83 21 67 58 119 85 119 31 0 38 -38 31 -154 -6 -107 2 -166
24 -166 5 0 14 14 20 30 6 17 16 44 22 60 6 17 18 30 26 30 8 0 13 6 10 13 -2
6 -17 60 -32 120 -40 153 -64 174 -162 142 -17 -6 -25 -1 -37 24 -21 40 -20
89 3 186 52 217 196 548 414 950 141 260 203 360 318 502 38 48 69 92 69 99 0
13 66 102 244 329 65 83 124 164 133 180 l16 30 -24 -20 c-34 -29 -55 -53
-205 -227 -75 -87 -137 -158 -138 -158 -1 0 4 42 12 93 22 148 -9 324 -56 315
-9 -2 -21 -13 -27 -25 -6 -15 -18 -21 -37 -21 -84 3 -319 -243 -413 -431 -27
-52 -63 -73 -51 -28 25 89 30 449 6 406 -9 -15 -25 -179 -35 -354 -30 -527
-89 -891 -196 -1221 -71 -219 -168 -452 -206 -496 -12 -13 -20 -14 -44 -6 -21
7 -43 7 -74 -1 -98 -25 -135 -12 -160 54 -15 38 -17 70 -13 217 6 191 26 302
130 713 156 620 286 960 510 1338 39 65 68 120 66 123 -3 2 -25 -17 -49 -43z
m-1580 -249 c39 -44 114 -192 136 -269 12 -39 16 -76 12 -112 -5 -47 -4 -53 9
-42 12 10 18 9 28 -2 20 -21 36 -77 36 -125 0 -32 4 -44 15 -44 8 0 17 -10 19
-22 3 -13 15 -66 27 -118 19 -80 23 -122 22 -270 -1 -247 -25 -536 -44 -524
-36 22 -338 620 -363 718 -24 97 -30 259 -17 426 14 167 27 234 47 251 9 8 14
32 14 74 0 65 6 95 20 95 4 0 22 -16 39 -36z m601 -62 c43 -138 87 -361 101
-508 16 -173 6 -981 -15 -1214 -22 -245 -38 -333 -64 -362 -8 -10 -15 -32 -14
-50 l1 -32 -30 32 c-56 59 -84 35 -76 -66 l5 -67 -48 54 c-115 130 -141 208
-141 426 -1 426 44 857 172 1630 50 301 60 315 109 157z m510 39 c48 -96 65
-186 65 -361 0 -191 -11 -253 -86 -485 -113 -352 -207 -832 -224 -1145 -8
-136 -15 -160 -47 -160 -30 0 -106 46 -113 70 -3 11 1 75 9 142 29 237 61 765
71 1183 7 273 8 285 33 285 16 0 18 9 18 63 0 40 8 87 23 132 33 95 93 223 98
208 2 -7 -7 -50 -21 -97 -14 -46 -26 -88 -26 -92 0 -19 36 45 51 91 12 34 25
54 44 63 30 15 45 48 45 96 0 60 31 63 60 7z m1074 -55 c10 -63 -11 -286 -33
-356 -28 -88 -216 -381 -276 -428 -15 -12 -28 -37 -35 -68 -6 -27 -35 -92 -64
-144 -30 -52 -107 -198 -171 -323 -65 -125 -119 -226 -122 -223 -3 3 6 40 20
83 14 43 30 98 36 123 22 95 83 540 90 653 7 110 9 120 34 143 14 13 44 62 66
108 21 47 59 113 84 148 24 35 54 81 65 103 11 22 42 56 69 76 65 49 74 53 82
41 4 -6 33 13 71 48 36 33 68 59 71 60 4 0 10 -20 13 -44z m-2779 -147 c20
-18 43 -46 52 -63 8 -17 71 -105 138 -196 165 -223 212 -297 352 -560 227
-425 313 -647 313 -810 0 -90 16 -223 39 -317 10 -43 16 -83 14 -90 -3 -7 -25
-15 -49 -19 -51 -7 -68 -27 -78 -87 -4 -21 -14 -41 -22 -44 -16 -6 -98 45
-160 99 -61 54 -169 291 -357 788 -167 440 -228 682 -277 1095 -22 191 -24
235 -10 235 5 0 25 -14 45 -31z m1907 -1933 c-26 -57 -37 -59 -28 -4 8 48 24
74 39 59 5 -5 1 -26 -11 -55z"/>
<path d="M4926 12578 c-9 -36 -7 -176 3 -182 15 -10 21 22 21 115 0 85 -11
115 -24 67z"/>
<path d="M5863 12250 c-23 -52 -61 -167 -133 -405 -181 -598 -524 -1371 -766
-1726 -29 -44 -54 -86 -54 -94 0 -24 19 -26 40 -5 62 62 259 405 359 626 150
328 170 365 240 439 37 38 93 102 126 140 94 112 188 205 207 205 12 0 18 8
18 23 0 33 11 45 56 61 23 8 81 37 131 65 50 28 98 51 108 51 9 0 31 11 49 25
41 32 91 33 107 4 17 -32 -20 -136 -116 -324 -103 -205 -166 -310 -233 -390
-29 -36 -144 -143 -255 -238 -360 -309 -567 -550 -683 -793 -24 -52 -49 -94
-54 -94 -5 0 -10 25 -12 56 -3 48 -7 60 -29 77 -22 16 -30 17 -49 7 -18 -10
-21 -17 -15 -43 4 -18 10 -104 14 -192 3 -97 10 -160 16 -159 11 1 27 28 55
96 24 59 60 86 95 70 35 -16 33 -61 -5 -141 -34 -71 -37 -124 -8 -129 12 -2
27 11 45 44 58 99 120 139 153 99 10 -12 10 -24 1 -54 -12 -43 -48 -94 -61
-86 -4 2 -10 -14 -14 -38 -3 -23 -9 -59 -12 -79 -5 -31 -3 -38 10 -38 29 0 63
29 103 87 l38 56 3 -39 c5 -61 -6 -99 -48 -162 -65 -97 -55 -102 75 -40 l86
41 27 -20 c34 -25 40 -63 14 -86 -11 -10 -55 -33 -98 -51 -44 -18 -79 -39 -79
-46 0 -26 53 -33 110 -15 56 17 95 10 95 -19 0 -23 -26 -36 -90 -47 -59 -9
-100 -26 -100 -41 0 -3 30 -9 68 -13 97 -9 117 -17 117 -46 0 -25 -21 -39
-147 -93 -32 -14 -58 -30 -58 -36 0 -17 46 -30 106 -30 45 0 59 -4 80 -25 31
-32 31 -81 -1 -78 -11 1 -24 -5 -28 -13 -13 -23 -99 -17 -187 13 -44 15 -83
24 -86 20 -10 -10 16 -37 37 -37 55 0 68 -88 19 -135 -32 -31 -31 -45 4 -45
15 0 26 -7 29 -20 3 -11 17 -22 33 -25 80 -16 101 -26 112 -50 14 -31 0 -75
-30 -94 -11 -7 -56 -16 -100 -18 -70 -5 -78 -8 -78 -26 0 -11 7 -29 16 -39 22
-23 10 -37 -62 -78 -53 -30 -69 -50 -39 -50 27 0 138 40 183 66 26 16 50 23
62 19 26 -8 80 -75 80 -98 0 -22 -37 -37 -93 -38 -55 0 -112 -20 -112 -39 0
-11 10 -14 40 -13 115 6 328 -62 570 -184 219 -110 308 -163 403 -240 130
-106 139 -76 18 61 -38 44 -53 67 -41 63 11 -4 74 -16 140 -28 105 -18 141
-20 285 -14 91 3 184 7 206 8 77 3 141 -62 262 -260 64 -106 67 -142 12 -156
-46 -12 -372 -2 -433 14 -47 11 -57 19 -240 180 -63 55 -79 58 -51 10 15 -26
299 -292 412 -386 58 -48 44 -21 -29 59 -39 42 -70 78 -68 79 2 2 85 -2 184
-7 100 -5 203 -6 229 -2 63 10 99 44 90 83 -19 85 -123 256 -218 360 -31 33
-56 63 -56 65 0 3 32 25 70 49 64 40 84 59 61 59 -5 0 -54 -16 -110 -35 -167
-58 -221 -68 -376 -68 -258 1 -445 57 -845 252 l-145 71 -96 111 -97 111 39
66 c42 72 47 98 24 128 -20 27 -19 32 13 48 34 17 132 33 292 46 373 31 477
46 892 134 421 89 468 98 482 93 18 -7 174 -189 212 -247 86 -131 72 -194 -59
-257 -86 -43 -215 -78 -371 -103 -71 -11 -132 -23 -136 -25 -4 -3 -45 20 -90
50 -46 30 -90 55 -98 55 -9 0 -74 32 -144 71 -78 43 -135 68 -145 65 -36 -14
31 -59 317 -211 80 -43 206 -113 280 -156 151 -87 170 -96 170 -80 0 19 -52
59 -147 112 -51 30 -93 56 -93 59 0 4 44 11 98 18 275 32 502 135 528 238 15
58 -38 155 -165 304 -40 47 -79 97 -87 112 -17 33 -22 30 138 91 176 69 303
137 254 137 -9 0 -98 -30 -198 -67 -304 -110 -502 -165 -753 -207 -82 -14
-173 -35 -201 -45 -112 -43 -398 -79 -690 -88 -110 -3 -217 -3 -237 1 -50 9
-49 34 4 103 l42 53 -63 59 c-60 57 -70 81 -31 81 34 0 81 75 73 117 -2 7 4
27 13 44 9 17 14 37 11 45 -4 11 2 13 33 8 28 -4 61 2 127 25 190 65 473 125
673 142 235 21 586 -6 926 -71 256 -49 400 -81 410 -91 14 -14 -5 -39 -50 -69
l-38 -25 28 -3 c37 -5 178 66 183 91 3 12 -3 17 -19 17 -13 0 -84 19 -158 41
-75 23 -185 52 -246 64 -97 20 -107 24 -85 34 14 6 66 28 115 49 138 58 224
110 287 172 116 116 94 158 -164 312 -96 58 -141 79 -272 127 -16 6 -7 17 55
67 41 33 120 92 177 132 56 40 102 77 102 82 0 15 -8 12 -48 -15 -46 -31 -54
-31 -132 1 -183 74 -374 89 -683 55 -335 -38 -490 -79 -812 -219 -88 -38 -162
-68 -164 -66 -2 1 52 65 120 141 336 375 469 549 695 908 65 104 132 204 147
222 53 60 10 68 -135 27 -126 -35 -383 -127 -490 -176 -49 -22 -91 -38 -94
-36 -2 2 31 65 73 139 97 171 153 290 151 320 -1 13 10 42 24 64 15 22 33 65
42 95 16 61 31 190 21 190 -20 0 -206 -80 -304 -131 -158 -82 -285 -174 -415
-301 -60 -60 -111 -106 -113 -104 -2 1 33 111 77 242 146 432 246 775 237 812
-3 12 -10 3 -24 -28z m859 -1155 c-8 -48 -239 -392 -412 -615 -203 -261 -458
-532 -625 -665 -118 -94 -297 -215 -318 -215 -9 0 -21 9 -27 21 -6 11 -41 34
-78 52 -62 30 -67 35 -73 69 -6 39 -33 78 -54 78 -7 0 -20 9 -29 19 -23 25
-17 42 47 156 71 124 180 256 348 420 313 305 644 530 884 599 49 14 107 36
129 47 48 26 162 59 191 56 14 -1 19 -8 17 -22z m568 -985 c104 -16 250 -51
250 -59 0 -11 -201 -160 -282 -210 -38 -22 -112 -77 -165 -121 -385 -319 -937
-562 -1414 -623 l-107 -13 -4 69 c-3 63 -7 72 -35 96 -114 97 -105 84 -88 124
8 20 12 43 9 51 -14 37 98 157 255 274 324 242 897 417 1376 421 77 0 169 -4
205 -9z m169 -375 c46 -19 115 -53 153 -75 75 -45 218 -157 218 -171 0 -14
-130 -118 -203 -161 -136 -80 -321 -140 -427 -139 -30 0 -89 7 -130 15 -63 13
-291 28 -568 39 l-64 2 173 105 c96 58 255 159 354 224 324 216 345 222 494
161z m-2050 -211 c-27 -29 -78 -58 -87 -50 -7 8 -7 8 52 45 61 38 67 39 35 5z
m45 -1030 c19 -19 20 -30 4 -41 -14 -8 -168 -41 -168 -36 0 8 39 45 71 68 38
29 71 32 93 9z m121 -563 c3 -5 1 -13 -5 -16 -15 -9 -43 3 -35 15 8 13 32 13
40 1z"/>
<path d="M1863 11903 c-22 -58 113 -485 223 -704 34 -68 79 -129 95 -129 12 0
-32 99 -80 180 -22 36 -50 103 -64 150 -43 142 -108 411 -102 421 11 16 24 10
31 -16 5 -19 13 -25 33 -25 14 0 51 -12 81 -26 30 -14 78 -31 105 -39 42 -10
50 -16 47 -34 -3 -16 2 -21 20 -21 47 -1 106 -37 127 -78 11 -21 54 -85 97
-142 42 -57 113 -163 156 -237 78 -132 105 -163 87 -100 -16 57 -72 159 -161
292 -147 220 -227 294 -414 381 -171 79 -223 106 -240 125 -21 23 -33 24 -41
2z"/>
<path d="M8727 10613 c-12 -12 -7 -41 7 -46 19 -7 40 18 32 38 -6 15 -28 20
-39 8z"/>
<path d="M2000 10551 c0 -27 110 -170 219 -283 70 -74 101 -94 101 -65 0 21
-102 148 -204 254 -93 97 -116 116 -116 94z"/>
<path d="M1517 10523 c-16 -15 -6 -33 18 -33 34 0 33 -28 -1 -36 -15 -4 -85
-1 -158 5 -221 20 -432 26 -441 12 -14 -23 17 -58 132 -151 119 -97 155 -138
111 -125 -19 5 -15 -1 17 -30 52 -48 137 -93 119 -64 -4 7 -1 10 6 7 24 -8 51
-54 57 -96 4 -34 10 -42 26 -42 55 0 207 -112 207 -153 0 -20 0 -20 24 2 28
27 25 28 129 -56 140 -114 533 -366 702 -450 87 -44 191 -80 201 -70 13 13
-13 30 -154 100 -81 40 -185 97 -232 127 -164 103 -436 290 -515 354 -44 36
-118 94 -165 128 -47 34 -120 93 -164 130 -43 38 -85 68 -94 68 -8 0 -30 17
-48 39 -18 21 -90 82 -159 135 -69 54 -125 102 -125 107 0 13 45 11 195 -6
419 -49 601 -100 915 -261 260 -133 455 -266 489 -333 14 -27 35 -46 80 -69
60 -31 294 -183 340 -220 31 -25 20 -42 -29 -42 -40 0 -70 -20 -70 -46 0 -73
117 -194 177 -182 14 2 9 9 -22 27 -86 52 -120 105 -95 150 16 31 45 26 107
-19 87 -62 99 -51 31 29 -24 27 -51 61 -61 75 -9 14 -75 71 -145 126 -257 204
-317 257 -423 371 -121 128 -149 149 -174 129 -21 -18 -50 -8 -220 75 -82 40
-199 90 -260 111 -121 41 -137 49 -133 72 3 13 -7 15 -49 13 -47 -2 -51 -1
-46 17 3 14 -6 28 -33 51 -38 31 -55 37 -67 24z"/>
<path d="M4230 10403 c0 -28 3 -34 10 -23 13 20 13 47 0 55 -6 4 -10 -9 -10
-32z"/>
<path d="M710 10061 c-41 -11 -36 -44 17 -124 61 -92 223 -286 295 -354 59
-55 103 -73 178 -73 l45 0 -82 40 c-113 55 -240 177 -357 342 l-87 123 113 11
c123 12 161 20 153 35 -7 10 -237 11 -275 0z"/>
<path d="M1067 10053 c-4 -6 28 -17 81 -28 48 -9 102 -24 121 -33 24 -11 38
-13 50 -5 27 17 25 42 -5 53 -39 15 -240 25 -247 13z"/>
<path d="M3685 9950 c-10 -17 4 -62 18 -57 15 5 16 59 0 64 -6 2 -14 -1 -18
-7z"/>
<path d="M4403 9738 c-28 -32 -40 -56 -48 -105 -5 -35 -4 -44 10 -49 21 -8 31
7 39 58 11 68 41 61 98 -22 17 -25 17 -25 7 15 -22 90 -40 125 -63 125 -12 0
-32 -10 -43 -22z"/>
<path d="M4126 9719 c-14 -11 -31 -29 -36 -40 -10 -18 -7 -19 46 -17 l56 3 17
-45 c20 -53 37 -51 34 4 -5 100 -57 142 -117 95z"/>
<path d="M3742 9717 c-10 -12 -41 -127 -42 -152 0 -5 21 22 47 60 l46 69 19
-54 c44 -133 76 -172 65 -79 -7 56 -45 129 -79 154 -27 18 -42 19 -56 2z"/>
<path d="M4057 9613 c-10 -9 -9 -43 1 -43 14 0 43 36 35 43 -8 9 -28 9 -36 0z"/>
<path d="M4715 9576 c-34 -15 -72 -55 -103 -107 -30 -49 -28 -58 6 -27 38 36
102 78 119 78 11 0 10 -8 -7 -35 -25 -40 -21 -65 9 -65 26 0 48 34 57 86 5 35
3 45 -15 63 -24 24 -26 25 -66 7z"/>
<path d="M3360 9566 c0 -16 69 -46 105 -46 30 0 32 13 5 40 -24 24 -110 29
-110 6z"/>
<path d="M3535 9440 c-43 -28 -65 -61 -65 -97 0 -25 11 -45 50 -88 28 -30 50
-59 50 -63 0 -5 -11 -19 -25 -32 -32 -30 -31 -42 3 -93 42 -61 44 -74 19 -92
-50 -35 -178 -1 -263 69 -31 25 -60 46 -64 46 -16 0 -47 -50 -60 -95 -11 -38
-11 -50 0 -71 16 -29 95 -82 137 -90 39 -8 53 12 15 21 -46 10 -136 115 -98
115 7 0 21 -9 31 -20 10 -11 26 -20 35 -20 38 0 169 -172 156 -205 -3 -10 -19
-15 -45 -15 -63 0 -91 -15 -91 -47 1 -69 89 -201 167 -251 27 -17 71 -36 98
-42 28 -6 57 -15 65 -20 13 -9 13 -11 0 -20 -8 -5 -23 -10 -32 -10 -9 0 -48
-29 -87 -65 -70 -64 -72 -65 -99 -50 -15 8 -40 26 -57 40 -36 30 -31 43 36 94
52 39 61 61 26 61 -31 0 -133 -53 -169 -88 -30 -28 -36 -45 -14 -36 9 3 31
-11 55 -35 49 -49 198 -122 263 -129 38 -4 56 1 92 22 25 14 47 30 50 34 2 4
-24 6 -59 4 -96 -5 -136 27 -80 64 17 11 35 14 59 10 34 -7 126 -71 126 -89 0
-12 -117 -146 -162 -185 -44 -39 -93 -63 -112 -56 -20 8 -20 25 -1 71 25 60
16 89 -22 65 -32 -20 -56 -137 -35 -169 12 -19 61 -34 90 -27 15 4 39 17 53
30 14 14 41 29 60 34 41 12 136 13 143 2 3 -5 -2 -28 -10 -52 -8 -24 -14 -59
-12 -79 3 -34 5 -36 43 -41 37 -5 41 -8 50 -47 11 -47 28 -67 63 -78 17 -5 29
1 52 25 17 18 30 36 30 40 0 5 -21 8 -47 7 -39 -2 -48 1 -51 16 -5 23 40 167
52 167 5 0 26 -20 48 -45 47 -53 163 -115 217 -115 21 0 59 -12 91 -30 30 -16
63 -29 74 -30 10 0 44 22 75 48 31 27 71 59 90 72 18 12 39 38 47 56 17 41 40
54 97 54 33 0 51 -6 72 -26 33 -30 28 -39 -17 -26 -45 12 -61 6 -48 -19 37
-67 264 -94 332 -39 l23 18 -45 42 c-50 47 -88 71 -74 48 4 -7 16 -25 27 -40
25 -34 17 -54 -25 -61 -38 -5 -68 7 -68 29 0 22 -76 100 -126 129 -37 22 -43
29 -33 41 6 8 18 14 26 14 22 0 83 65 83 87 0 11 -9 28 -20 38 -11 10 -20 21
-20 25 0 5 18 30 40 56 56 68 53 102 -12 118 -16 3 -28 10 -28 14 0 4 18 26
40 47 69 67 43 78 -34 15 -46 -38 -62 -45 -96 -40 -47 6 -26 54 42 94 76 44
92 47 134 25 49 -25 54 -24 54 6 0 15 9 31 24 40 15 10 22 22 19 34 -3 10 3
33 11 50 27 52 -4 111 -66 126 -36 9 -35 1 2 -42 17 -18 30 -42 30 -52 0 -26
-41 -83 -70 -99 -35 -18 -145 -11 -167 11 -16 16 -15 18 10 45 43 45 33 82
-24 82 -25 0 -24 17 7 85 l26 56 -23 25 c-13 14 -28 39 -34 57 -8 25 -16 33
-40 35 -29 4 -29 3 -12 -15 23 -26 22 -35 -9 -64 -21 -20 -36 -24 -87 -24
l-62 0 1 55 c1 30 10 80 20 110 17 50 22 55 49 55 44 0 44 -31 1 -86 -40 -50
-45 -69 -17 -69 29 0 57 42 81 121 24 80 21 99 -13 99 -44 0 -49 18 -42 153 8
132 2 160 -35 172 -14 4 -36 -3 -69 -24 -54 -35 -154 -61 -175 -46 -7 6 -32
25 -56 43 -78 59 -127 36 -139 -65 -11 -97 -26 -104 -96 -43 -56 48 -94 53
-130 14 -13 -14 -27 -39 -30 -54 -9 -41 -41 -77 -74 -85 -59 -13 -147 45 -182
120 -23 50 -24 69 -2 90 12 13 26 15 54 11 47 -8 61 10 29 36 -28 23 -48 23
-85 -2z m609 -53 c33 -25 34 -157 1 -157 -42 0 -85 93 -66 143 11 30 36 35 65
14z m356 -66 c0 -63 -7 -74 -54 -85 -17 -4 -46 -20 -65 -35 -31 -24 -157 -71
-190 -71 -18 0 -12 58 10 103 29 57 58 87 85 87 30 0 36 -11 43 -79 6 -52 7
-54 19 -33 7 13 14 33 16 45 5 38 17 57 64 93 64 48 72 46 72 -25z m-580 -58
c31 -25 70 -98 70 -129 0 -23 -24 -16 -76 19 -61 42 -90 87 -74 116 15 28 42
26 80 -6z m140 -94 c0 -11 -4 -19 -9 -19 -16 0 -31 27 -25 44 8 21 34 2 34
-25z m408 2 c25 -16 -61 -161 -95 -161 -9 0 -13 16 -13 54 0 60 24 102 63 109
12 2 24 5 27 5 3 1 11 -2 18 -7z m-638 -46 c15 -16 34 -25 54 -25 21 0 41 -11
68 -37 49 -48 48 -59 -2 -33 -51 26 -54 26 -105 -11 -54 -39 -111 -47 -170
-25 -75 29 -122 106 -75 121 34 11 78 -5 106 -38 14 -17 34 -31 45 -32 10 -1
28 -10 40 -21 22 -19 22 -19 15 6 -13 45 -19 120 -9 120 5 0 20 -11 33 -25z
m468 -50 c2 -20 -2 -52 -9 -69 -16 -40 -48 -86 -59 -86 -14 0 -40 100 -34 127
7 25 71 76 89 70 5 -2 11 -21 13 -42z m-218 -10 c14 -17 5 -52 -23 -82 -31
-34 -40 -28 -35 22 8 65 32 91 58 60z m-142 -79 c7 -14 16 -42 19 -61 5 -29 3
-35 -13 -35 -29 0 -64 40 -64 75 0 32 17 58 35 52 5 -2 16 -16 23 -31z m460
-48 c4 -31 -38 -85 -57 -73 -27 16 14 111 43 102 6 -2 12 -15 14 -29z m-254 6
c37 -37 2 -124 -50 -124 -31 0 -34 8 -22 65 15 75 38 93 72 59z m-393 -20 c42
-21 37 -58 -9 -62 -25 -3 -39 3 -62 27 -17 16 -30 34 -30 40 0 16 67 13 101
-5z m-174 -30 c3 -9 2 -33 -3 -53 -8 -34 -12 -36 -53 -39 -68 -5 -108 50 -65
92 22 22 112 22 121 0z m370 -63 c33 -21 63 -43 66 -48 7 -12 -131 -4 -165 9
-30 11 -34 27 -18 59 16 29 51 23 117 -20z m-245 -10 c69 -23 112 -59 106 -90
-2 -9 -13 -17 -26 -19 -16 -3 -27 6 -43 32 -20 34 -63 56 -110 56 -9 0 -22 7
-30 16 -10 13 -10 17 2 25 8 5 19 7 24 5 6 -2 40 -13 77 -25z m578 9 c11 -11
20 -24 20 -29 0 -14 -44 -73 -63 -85 -47 -29 -50 95 -3 126 17 12 24 10 46
-12z m188 -46 c26 -17 28 -34 8 -72 -39 -76 -97 -81 -116 -11 -25 91 30 133
108 83z m189 9 c2 -5 -17 -36 -42 -68 -61 -79 -60 -89 10 -82 30 3 55 2 55 -3
0 -5 -15 -25 -34 -44 -41 -44 -57 -40 -86 18 -37 77 -22 136 44 177 32 20 47
20 53 2z m-523 -49 c12 -31 6 -77 -15 -111 -28 -45 -45 -38 -41 18 7 78 40
134 56 93z m-443 -25 c11 -5 19 -14 19 -19 0 -16 -48 -42 -88 -47 -32 -4 -44
-1 -61 16 -28 28 -24 53 9 62 29 9 95 3 121 -12z m252 -6 c7 -16 18 -28 25
-29 25 -2 28 -5 45 -33 19 -33 22 -76 6 -87 -42 -25 -148 134 -112 169 13 13
24 7 36 -20z m372 -87 c9 -13 12 -31 9 -40 -6 -15 -16 -17 -75 -11 -59 6 -69
5 -69 -9 0 -8 16 -28 36 -43 140 -107 140 -144 3 -128 -83 10 -89 3 -89 -101
0 -93 -11 -114 -61 -114 -40 0 -44 17 -30 114 17 110 33 146 65 146 32 0 39
12 25 44 -15 31 1 74 45 124 57 65 107 71 141 18z m-740 -9 c41 -22 60 -38 60
-51 0 -24 -15 -31 -89 -45 -49 -9 -63 -8 -85 5 -27 17 -91 90 -91 104 0 13 73
29 110 23 19 -2 62 -19 95 -36z m265 26 c41 -26 90 -76 90 -89 0 -7 -33 -29
-72 -47 l-73 -35 -42 30 c-56 38 -59 74 -9 124 38 38 68 43 106 17z m645 -37
c18 -13 18 -15 2 -40 -10 -14 -24 -26 -32 -26 -26 0 -66 20 -72 36 -14 36 63
59 102 30z m167 -107 c53 -14 55 -25 7 -49 -50 -26 -80 -21 -109 20 -37 52
-12 59 102 29z m-632 -19 c0 -45 -21 -80 -60 -100 -99 -51 -151 -8 -73 60 33
29 105 69 126 70 4 0 7 -13 7 -30z m433 -1 c39 -10 47 -15 47 -35 0 -31 -36
-40 -83 -21 -37 16 -63 50 -52 68 4 5 14 8 23 5 10 -3 38 -10 65 -17z m-749
-5 c35 -34 3 -59 -74 -59 -57 0 -96 17 -84 37 21 34 131 49 158 22z m94 -126
c20 -19 38 -24 115 -28 l92 -5 -97 -53 c-108 -59 -114 -59 -162 -1 -28 33 -32
59 -16 90 14 25 38 24 68 -3z m789 0 c56 -38 56 -78 1 -78 -40 0 -68 25 -68
60 0 47 17 51 67 18z m-367 -54 c0 -19 -26 -18 -34 2 -3 9 -6 25 -6 37 1 22 1
22 20 -2 11 -13 20 -29 20 -37z m225 31 c27 -26 32 -54 13 -73 -21 -21 -46
-13 -75 24 l-27 36 23 19 c30 25 37 24 66 -6z m-121 -21 c3 -9 6 -24 6 -33 0
-10 16 -38 35 -62 19 -24 35 -51 35 -59 0 -44 -80 -57 -101 -17 -14 24 -18
142 -7 170 9 21 24 22 32 1z m464 -14 c17 -11 32 -24 32 -30 0 -15 -114 -69
-152 -72 -47 -4 -46 20 2 75 47 52 68 57 118 27z m-219 -99 c59 -41 17 -55
-73 -23 -52 18 -61 33 -24 43 31 9 68 1 97 -20z m-329 -48 c0 -92 -12 -164
-27 -170 -41 -16 -120 57 -109 101 8 34 94 126 117 126 16 0 19 -8 19 -57z
m-373 -27 c-6 -46 -31 -82 -77 -114 -120 -81 -122 0 -3 126 46 49 54 54 68 42
13 -11 16 -24 12 -54z m128 29 c30 -29 31 -36 6 -66 -18 -22 -21 -23 -36 -8
-17 17 -37 84 -27 93 12 12 34 5 57 -19z m486 -18 c8 -7 24 -24 33 -40 23 -34
8 -57 -35 -57 -36 0 -42 12 -34 66 7 47 11 50 36 31z m257 -9 c19 -19 14 -56
-9 -69 -35 -18 -139 5 -139 31 0 6 15 19 33 30 36 22 97 26 115 8z m-368 -90
c26 -43 26 -94 1 -108 -29 -15 -39 -13 -66 15 -31 30 -33 77 -5 105 28 28 47
25 70 -12z m-432 -43 c2 -21 -2 -51 -9 -66 -22 -54 -99 -106 -122 -83 -13 13
53 191 76 206 22 13 52 -17 55 -57z m141 20 c17 -20 31 -44 31 -54 0 -18 -61
-81 -78 -81 -21 0 -32 29 -32 85 0 92 27 109 79 50z m546 -31 c32 -21 23 -34
-23 -34 -50 0 -70 13 -53 34 17 20 45 20 76 0z m-108 -126 c5 -45 4 -48 -18
-48 -13 0 -33 7 -43 15 -24 18 -66 20 -66 3 0 -6 7 -19 15 -28 12 -13 13 -23
5 -44 -14 -39 -35 -42 -80 -12 -66 43 -66 104 0 117 53 11 78 30 112 82 l32
50 19 -44 c11 -24 22 -65 24 -91z m-294 63 c38 -15 38 -62 -2 -102 -32 -32
-52 -36 -70 -15 -19 23 -31 75 -24 108 5 27 9 30 37 25 17 -3 43 -10 59 -16z"/>
<path d="M600 9441 c-80 -7 -100 -14 -100 -36 0 -22 287 -209 494 -321 186
-102 325 -164 365 -164 22 0 36 -16 22 -24 -5 -4 -94 -24 -197 -46 -426 -91
-618 -174 -782 -340 -84 -84 -152 -188 -152 -232 0 -25 2 -27 20 -16 16 10 30
7 87 -20 104 -49 181 -65 313 -65 65 1 140 8 173 16 31 8 57 13 57 11 0 -2
-26 -41 -59 -86 -153 -216 -244 -375 -275 -477 -21 -72 -20 -76 10 -52 31 25
95 38 249 51 162 14 310 34 559 76 228 38 336 47 343 27 3 -7 -47 -46 -114
-89 -96 -62 -147 -105 -269 -228 -196 -196 -324 -366 -409 -541 -34 -71 -68
-145 -74 -164 l-11 -34 83 6 c91 7 324 58 520 113 70 20 130 34 133 31 6 -6
-13 -37 -73 -121 -121 -165 -262 -473 -279 -607 -10 -83 7 -52 67 121 35 101
64 166 82 187 16 18 46 68 66 110 96 198 266 352 676 608 121 76 306 195 410
265 297 198 300 199 341 155 13 -14 29 -25 35 -25 20 0 92 81 122 138 16 29
23 52 17 52 -6 0 -33 -20 -59 -45 -51 -47 -81 -57 -81 -27 0 10 11 52 25 92
14 40 25 86 25 101 0 15 11 40 24 55 23 27 25 28 65 14 33 -10 49 -11 81 -1
55 16 60 31 10 31 -79 0 -106 37 -47 66 70 35 104 94 55 94 -14 0 -49 -29
-102 -84 -45 -47 -91 -89 -103 -95 -25 -13 -169 -15 -177 -3 -10 17 48 82 91
103 38 18 44 25 41 48 -11 92 -198 -56 -198 -157 0 -48 29 -62 132 -62 49 0
88 -2 88 -4 0 -2 -16 -42 -36 -88 -42 -100 -72 -134 -122 -141 -28 -3 -52 -19
-98 -64 -107 -104 -571 -400 -880 -560 -177 -91 -363 -159 -604 -218 -135 -33
-280 -54 -280 -41 0 20 96 192 145 261 193 270 402 486 585 604 91 59 279 149
455 219 269 106 297 114 430 120 124 5 155 12 155 37 0 16 -23 23 -85 27 l-40
3 43 29 c46 31 58 62 20 50 -13 -3 -53 -22 -90 -40 -165 -83 -447 -151 -1123
-273 -181 -32 -377 -64 -435 -70 -168 -17 -297 -23 -319 -16 -20 6 -20 8 -4
38 51 101 266 388 356 478 148 146 459 308 672 350 33 6 184 14 336 16 393 8
486 -7 606 -98 35 -27 66 -49 68 -49 2 0 1 9 -2 19 -17 66 -193 172 -296 179
-31 3 -59 8 -62 12 -2 4 14 13 35 20 22 7 40 16 40 20 0 4 -35 13 -77 20 -202
32 -733 182 -934 264 -264 106 -719 367 -719 412 0 32 51 38 355 42 428 6 694
-17 960 -82 143 -35 263 -77 485 -168 260 -107 246 -102 230 -83 -37 45 -365
192 -595 267 -131 42 -363 78 -635 98 -145 11 -736 11 -860 1z m1122 -656
c128 -41 352 -92 481 -111 26 -3 46 -8 44 -11 -3 -2 -92 -11 -198 -18 -287
-22 -439 -47 -595 -100 -103 -35 -253 -110 -346 -173 -129 -87 -228 -128 -364
-151 -83 -14 -180 2 -304 50 -100 39 -125 59 -116 92 15 60 213 225 349 291
146 71 412 131 656 147 91 6 174 15 185 19 37 15 62 11 208 -35z"/>
<path d="M4900 9423 c-26 -18 -40 -33 -40 -45 0 -13 50 -9 79 7 26 13 30 13
42 -2 23 -27 16 -98 -14 -137 -42 -54 -37 -59 48 -51 74 7 105 -1 105 -26 0
-5 -25 -36 -55 -69 -54 -59 -63 -74 -47 -84 18 -11 71 35 106 92 45 75 46 97
4 118 -55 27 -78 55 -94 114 -23 80 -38 100 -77 100 -18 0 -44 -8 -57 -17z"/>
<path d="M2920 9270 c-26 -26 -25 -52 5 -112 14 -27 25 -52 25 -54 0 -3 -28
15 -63 40 -58 41 -145 86 -168 86 -5 0 -9 -4 -9 -10 0 -5 7 -10 16 -10 11 0
15 -8 12 -27 -3 -24 0 -27 27 -28 27 0 31 -5 43 -45 21 -69 44 -109 84 -145
44 -40 109 -75 139 -75 15 0 4 11 -40 41 -72 48 -131 114 -131 146 0 13 4 23
9 23 5 0 37 -22 72 -50 63 -49 89 -60 89 -39 0 6 -9 22 -20 36 -11 14 -17 29
-14 34 3 5 31 9 62 9 62 0 60 8 -11 34 -26 10 -64 33 -83 51 -58 55 -26 71 66
35 87 -34 90 -24 8 40 -55 44 -88 50 -118 20z"/>
<path d="M4635 9233 c-57 -15 -49 -53 11 -53 72 0 108 -37 68 -71 -9 -7 -20
-24 -25 -37 -10 -26 -2 -75 12 -67 13 8 44 83 58 139 11 44 10 51 -6 67 -19
19 -84 31 -118 22z"/>
<path d="M4751 8961 c-19 -12 -6 -44 16 -37 10 2 28 7 41 11 34 10 28 -15 -23
-103 -56 -95 -61 -137 -10 -77 49 57 105 149 105 174 0 11 -9 25 -19 31 -24
12 -91 13 -110 1z"/>
<path d="M2793 8900 c-13 -5 -32 -24 -42 -41 -24 -40 -19 -54 50 -125 l50 -50
-75 -18 c-41 -9 -80 -24 -87 -32 -17 -21 5 -59 60 -100 50 -39 106 -57 159
-52 36 3 35 5 -56 47 -114 54 -116 67 -17 96 105 31 115 35 115 49 0 18 -27
39 -91 69 -57 28 -86 63 -75 93 6 15 18 16 109 10 95 -6 101 -5 82 10 -56 45
-132 64 -182 44z"/>
<path d="M5136 8848 c11 -21 15 -47 12 -80 -3 -28 -1 -51 5 -55 18 -11 57 45
57 83 0 40 -36 84 -70 84 -20 0 -20 -1 -4 -32z"/>
<path d="M3080 8722 c-47 -23 -52 -67 -16 -123 15 -21 29 -39 33 -39 3 0 3 22
0 49 -7 56 1 67 48 73 39 4 48 42 13 52 -34 9 -39 8 -78 -12z"/>
<path d="M5010 8493 c0 -6 25 -23 55 -39 l54 -29 -62 -59 c-58 -54 -67 -82
-17 -56 29 15 101 110 98 128 -2 8 -14 23 -28 34 -29 21 -100 36 -100 21z"/>
<path d="M3200 8444 c-78 -34 -90 -75 -39 -137 34 -42 54 -40 45 5 -9 45 3 77
30 84 24 6 44 31 44 53 0 15 -39 13 -80 -5z"/>
<path d="M2766 8395 c-76 -27 -125 -101 -111 -166 9 -41 42 -52 132 -45 85 8
176 33 168 46 -4 6 -53 10 -110 10 -105 0 -134 9 -94 31 l22 12 -22 11 c-12 7
-18 16 -14 20 15 15 75 36 103 36 64 0 116 38 74 54 -27 10 -107 6 -148 -9z"/>
<path d="M6030 8365 c0 -16 38 -35 71 -35 27 0 24 13 -10 33 -36 21 -61 22
-61 2z"/>
<path d="M6160 8342 c0 -12 34 -42 48 -42 16 0 15 23 0 38 -14 14 -48 16 -48
4z"/>
<path d="M4954 8199 c-3 -6 12 -30 35 -53 22 -23 41 -49 41 -58 0 -10 -24 -26
-65 -44 -36 -16 -65 -33 -65 -38 0 -14 86 2 130 24 46 24 65 52 51 78 -13 24
-82 88 -103 95 -10 3 -20 1 -24 -4z"/>
<path d="M3334 7888 c-73 -77 -104 -150 -79 -184 15 -21 77 -14 114 14 42 31
37 41 -14 30 -26 -5 -49 -7 -52 -4 -10 9 11 47 51 94 32 39 49 92 28 92 -4 0
-26 -19 -48 -42z"/>
<path d="M5280 7834 c0 -9 16 -42 34 -73 85 -139 68 -168 -61 -110 -48 21 -56
21 -107 10 l-55 -12 42 -86 c31 -66 41 -99 42 -137 0 -44 -3 -51 -21 -54 -11
-2 -32 7 -47 18 -21 16 -27 30 -27 58 l0 36 -22 -21 -21 -22 -28 30 c-15 16
-32 29 -38 29 -20 0 -12 -57 20 -135 36 -90 36 -138 1 -143 -45 -7 -102 80
-137 208 -24 85 -54 150 -71 150 -25 0 -25 -20 1 -65 32 -54 26 -69 -26 -62
-44 6 -48 -1 -19 -28 59 -54 119 -200 92 -227 -17 -17 -60 26 -73 75 -8 30
-18 42 -45 53 -19 8 -39 12 -43 10 -5 -3 0 -45 10 -93 20 -97 24 -173 9 -173
-20 0 -70 57 -103 115 -32 57 -35 60 -71 59 -56 -2 -60 -10 -48 -111 6 -48 7
-92 2 -97 -20 -20 -82 147 -94 253 -5 51 -19 81 -37 81 -5 0 -9 -31 -9 -69 0
-81 -10 -95 -61 -81 -18 6 -35 10 -37 10 -1 0 15 -22 37 -50 42 -53 61 -115
61 -197 0 -58 -4 -54 -71 72 l-53 100 -7 -35 c-3 -19 -12 -67 -18 -107 -7 -39
-18 -79 -26 -89 -11 -16 -14 -15 -30 16 -12 23 -18 55 -17 97 1 49 -2 63 -13
63 -16 0 -23 -23 -27 -84 -7 -95 -58 -21 -58 82 0 45 5 66 21 86 13 16 18 33
14 46 -7 22 -53 80 -63 80 -4 0 -5 -30 -4 -67 4 -71 -15 -251 -28 -273 -18
-29 -32 9 -55 145 l-7 40 -29 -57 c-30 -58 -97 -138 -117 -138 -23 0 -36 48
-39 149 -2 80 -7 109 -20 123 -9 10 -19 18 -23 18 -4 0 -11 -44 -15 -97 -3
-54 -20 -180 -36 -281 -61 -382 -89 -727 -89 -1097 0 -297 12 -394 71 -571 39
-118 92 -224 115 -231 7 -2 9 14 6 50 -4 47 5 80 66 258 38 112 79 249 92 304
26 119 29 129 35 123 3 -3 14 -81 25 -174 11 -93 27 -194 36 -224 9 -30 27
-101 39 -157 28 -120 93 -263 134 -294 21 -15 27 -27 23 -45 -6 -35 5 -29 27
14 31 61 61 169 81 297 11 66 29 171 41 234 l22 113 27 -47 c54 -92 195 -245
227 -245 9 0 30 99 84 393 12 64 24 117 28 117 4 0 66 -89 138 -197 202 -306
288 -397 363 -391 29 3 38 9 53 39 48 98 67 416 38 622 -17 122 -10 133 49 77
49 -47 165 -108 274 -145 92 -31 112 -27 86 18 -38 65 -74 217 -52 217 5 0 65
-51 133 -112 157 -142 205 -181 276 -224 118 -71 163 -36 163 124 0 104 -16
191 -67 370 -19 67 -33 127 -31 132 2 5 28 -2 58 -16 81 -38 155 -54 242 -54
115 0 121 33 8 45 -129 13 -239 63 -392 177 -278 209 -776 689 -853 823 -42
73 -42 82 6 126 49 45 64 47 122 18 265 -135 633 -451 1070 -917 104 -111 192
-200 195 -198 2 3 -16 33 -42 67 -25 33 -46 65 -46 70 0 12 4 12 155 -11 162
-24 248 -26 269 -4 21 20 20 28 -8 111 -65 192 -186 371 -273 404 -14 5 -91
16 -172 25 -184 19 -257 35 -379 80 -113 42 -225 103 -336 182 -86 61 -342
311 -384 375 l-26 38 43 40 c37 33 42 43 36 66 -12 48 -36 91 -77 138 -42 47
-58 56 -58 29z m-43 -230 c24 -14 48 -34 54 -46 6 -11 35 -54 65 -96 59 -82
68 -108 32 -96 -63 19 -142 93 -180 168 -11 22 -31 55 -44 73 -13 17 -24 34
-24 37 0 8 50 -12 97 -40z m-691 -469 c14 -30 24 -61 21 -68 -5 -12 -57 88
-57 111 0 25 12 11 36 -43z m483 32 c37 -2 48 -8 77 -41 50 -58 111 -166 217
-386 118 -243 140 -300 182 -464 37 -142 105 -473 105 -507 0 -17 -4 -19 -22
-13 -74 22 -177 95 -264 185 -77 80 -99 113 -88 131 5 7 2 9 -8 5 -54 -20
-271 323 -356 563 -53 151 -112 397 -112 467 0 21 4 24 28 23 49 -4 61 0 89
25 24 22 34 25 68 19 22 -3 60 -6 84 -7z m-522 -247 c5 0 19 7 32 16 14 11 26
13 32 7 13 -13 41 -170 74 -418 24 -179 27 -221 22 -400 -5 -189 -29 -419 -73
-700 -20 -132 -31 -165 -50 -158 -55 21 -254 421 -268 538 -60 499 -81 840
-64 1038 11 136 15 141 67 79 24 -28 49 -53 57 -56 23 -9 36 32 35 107 l-1 70
64 -61 c35 -34 68 -62 73 -62z m175 89 c26 -14 40 -50 77 -201 58 -234 150
-430 319 -678 145 -213 167 -281 180 -548 12 -264 -1 -349 -64 -417 -23 -25
-25 -25 -49 -9 -73 47 -382 530 -406 633 -5 20 -13 171 -19 336 -12 344 -27
492 -74 728 l-33 167 24 0 c13 0 33 -5 45 -11z m-809 -59 c4 -19 17 -34 36
-45 38 -19 60 -19 83 2 10 9 21 13 26 9 15 -16 7 -408 -12 -521 -32 -195 -146
-682 -226 -964 -40 -143 -96 -291 -108 -291 -9 0 -58 133 -74 200 -10 41 -13
176 -13 530 1 499 11 700 45 870 26 125 53 212 58 183 9 -56 55 -48 121 21 42
44 57 45 64 6z m1633 -196 c99 -92 229 -209 289 -261 61 -52 135 -116 166
-143 64 -56 108 -137 157 -290 46 -144 65 -261 59 -358 -3 -46 -9 -88 -15 -94
-40 -40 -462 317 -524 443 -14 30 -42 116 -62 192 -53 198 -87 289 -182 487
-46 96 -84 178 -84 183 0 20 31 -6 196 -159z m636 121 c109 -39 215 -55 363
-55 76 0 110 -5 141 -19 94 -43 250 -341 209 -398 -30 -41 -300 -1 -364 53
-16 13 -48 32 -72 43 -24 10 -70 43 -102 72 -69 62 -282 291 -297 319 -16 29
7 26 122 -15z m-2011 -66 c6 -13 15 -106 20 -213 15 -330 57 -688 104 -899 14
-60 25 -136 25 -168 0 -64 -85 -571 -101 -600 -20 -38 -43 -16 -93 91 -73 154
-116 413 -116 700 1 184 16 334 54 520 32 157 44 260 52 419 3 69 7 136 10
149 6 28 30 29 45 1z"/>
<path d="M3596 7788 c-32 -65 -35 -127 -5 -153 19 -19 21 -19 55 0 39 21 74
60 74 81 0 21 -14 17 -40 -11 -13 -14 -29 -25 -36 -25 -15 0 -25 26 -20 53 12
60 15 107 7 107 -5 0 -21 -23 -35 -52z"/>
<path d="M4635 7740 c-5 -8 8 -24 49 -58 68 -55 -77 -127 -181 -90 -49 18 -64
-2 -28 -38 24 -24 32 -26 81 -21 144 15 226 139 131 197 -36 23 -43 24 -52 10z"/>
<path d="M3747 7608 c-10 -35 12 -114 40 -144 l26 -28 38 42 c56 59 52 92 -4
43 -18 -15 -20 -14 -38 8 -11 13 -22 41 -25 62 -7 42 -28 52 -37 17z"/>
<path d="M3106 7586 c-57 -60 -84 -176 -50 -210 10 -11 34 -16 75 -16 44 0 59
-4 59 -14 0 -32 -257 -508 -388 -718 -155 -248 -298 -437 -552 -728 -219 -251
-262 -302 -256 -307 17 -17 179 135 347 327 l66 75 -1 -205 c-1 -181 2 -226
27 -380 16 -96 34 -186 41 -200 14 -29 46 -40 46 -15 0 28 37 89 75 125 36 33
37 34 32 10 -3 -14 -15 -77 -27 -140 -22 -118 -32 -147 -58 -166 -11 -8 -14
-22 -9 -57 4 -30 2 -58 -8 -80 -10 -25 -13 -54 -8 -100 4 -52 2 -69 -10 -81
-11 -11 -17 -46 -21 -123 -4 -60 -16 -241 -26 -403 -43 -649 -63 -1105 -62
-1435 2 -633 36 -1503 61 -1543 9 -15 203 3 245 23 42 20 50 39 31 69 -22 33
-33 210 -41 641 -7 397 2 580 32 699 31 121 142 326 178 326 6 0 39 23 71 51
72 61 107 80 205 110 111 35 236 33 306 -3 28 -15 70 -49 93 -75 23 -26 61
-64 85 -83 24 -19 79 -66 123 -103 138 -121 335 -236 490 -286 145 -46 469
-73 506 -42 12 10 31 12 67 7 43 -6 50 -4 60 15 9 15 18 20 37 16 19 -3 27 0
30 13 6 21 82 57 148 69 32 6 89 37 188 102 78 51 149 97 159 103 91 60 476
386 704 597 48 44 126 107 173 138 47 32 128 90 179 128 103 78 254 157 282
148 19 -6 34 8 44 43 6 18 4 22 -16 22 -12 0 -108 42 -213 94 -104 52 -298
138 -430 191 -132 53 -397 162 -590 240 -675 276 -816 315 -1138 315 -271 0
-543 -31 -677 -78 -194 -67 -458 -262 -551 -405 -69 -106 -111 -273 -149 -587
-21 -176 -49 -330 -70 -385 -35 -93 -274 -405 -310 -405 -22 0 -6 669 25 1030
14 162 28 302 30 310 2 8 13 87 24 175 11 88 30 223 41 300 12 77 19 160 17
184 -4 33 0 51 14 70 22 31 44 184 29 210 -15 27 -36 -40 -75 -231 -61 -305
-120 -749 -134 -1006 -6 -103 -12 -146 -21 -152 -10 -6 -16 -49 -21 -147 -24
-421 -30 -506 -36 -516 -4 -7 -8 -61 -8 -122 0 -60 -4 -132 -8 -160 -7 -43 -5
-54 13 -75 l21 -25 -7 28 c-4 16 -2 27 4 27 25 0 27 -58 17 -420 -4 -139 -2
-343 5 -500 22 -517 23 -583 8 -603 -15 -20 -83 -39 -111 -31 -30 9 -49 63
-59 173 -15 160 -3 1981 16 2421 17 401 23 490 37 540 6 19 14 78 19 130 33
351 81 617 150 833 22 67 44 145 50 172 12 58 131 355 143 355 4 0 7 -35 7
-77 1 -113 26 -457 41 -538 15 -85 30 -123 61 -152 l24 -23 1 36 c1 21 30 95
76 192 134 280 249 618 327 962 72 317 150 712 179 910 l17 115 32 -3 c27 -3
32 0 32 17 0 11 -9 25 -20 31 -16 9 -20 21 -20 65 0 30 -4 55 -9 55 -12 0 -37
-71 -51 -145 -17 -87 -49 -193 -61 -201 -21 -13 -29 21 -23 93 6 72 -7 143
-28 143 -5 0 -44 -32 -85 -70 -74 -69 -108 -88 -138 -76 -24 9 -18 83 11 146
14 30 28 82 31 114 7 66 7 66 -62 11 -138 -111 -188 -99 -104 25 28 40 49 80
47 89 -6 29 -38 24 -72 -13z m388 -656 c0 -155 -11 -221 -100 -605 -92 -392
-288 -959 -377 -1090 l-25 -37 -6 39 c-28 181 -36 611 -16 808 51 504 200 907
426 1154 l59 64 19 -94 c14 -66 20 -137 20 -239z m-269 224 c14 -9 25 -26 25
-37 0 -12 -23 -59 -51 -104 -98 -160 -174 -371 -229 -633 -55 -262 -87 -367
-174 -580 -84 -205 -224 -457 -269 -484 -25 -15 -32 0 -51 103 -69 381 -24
651 146 862 91 112 241 352 413 661 95 170 134 228 156 228 5 0 21 -7 34 -16z
m1605 -2478 c158 -30 245 -57 405 -126 88 -37 381 -158 650 -268 592 -241 727
-299 737 -315 4 -6 5 -22 2 -33 -4 -16 0 -24 15 -29 46 -14 15 -63 -66 -104
-24 -12 -50 -32 -58 -45 -9 -13 -26 -27 -39 -30 -48 -12 -313 -217 -511 -395
-49 -45 -107 -89 -127 -99 -21 -9 -38 -22 -38 -28 0 -32 -244 -229 -440 -357
-165 -107 -378 -199 -554 -239 -138 -32 -348 -30 -477 4 -208 56 -377 162
-604 379 -115 109 -201 172 -273 199 -79 30 -205 24 -315 -15 -43 -15 -80 -25
-83 -22 -7 7 86 87 116 100 14 6 41 25 60 42 19 18 55 37 80 44 25 7 61 22 81
32 21 10 72 28 115 39 89 24 188 66 205 86 6 8 26 14 44 14 27 0 42 10 84 56
56 61 58 82 8 60 -18 -7 -60 -25 -94 -40 -101 -42 -115 -33 -89 58 9 30 16 74
16 99 0 34 4 46 18 49 10 3 22 23 30 47 16 54 111 213 179 299 100 127 113
145 113 161 -1 10 -17 -3 -41 -31 -23 -27 -46 -48 -53 -48 -19 0 -71 -59 -111
-125 -93 -152 -172 -345 -211 -509 l-18 -78 -76 -35 c-173 -80 -337 -146 -372
-151 -45 -6 -46 -3 -23 128 8 47 28 197 45 334 44 364 51 386 162 512 206 234
438 355 758 393 125 15 651 6 750 -13z"/>
<path d="M4905 4414 c-40 -21 -65 -44 -65 -61 0 -20 14 -16 39 11 13 14 36 30
52 36 16 7 26 16 23 21 -7 12 -14 11 -49 -7z"/>
<path d="M4780 4341 c-17 -33 -11 -48 10 -22 11 13 20 27 20 32 0 16 -19 9
-30 -10z"/>
<path d="M4644 4280 c-50 -28 -70 -52 -58 -71 9 -16 23 -10 63 26 21 19 48 35
60 35 14 0 21 6 21 20 0 28 -26 25 -86 -10z"/>
<path d="M5512 4234 c-12 -8 -36 -14 -53 -12 -34 3 -38 -7 -14 -34 19 -23 30
-23 54 3 15 16 28 20 55 17 40 -4 44 1 18 25 -23 21 -32 21 -60 1z"/>
<path d="M4487 4162 c-21 -22 -28 -38 -25 -58 3 -29 3 -28 31 18 35 58 32 79
-6 40z"/>
<path d="M5323 4179 c-90 -16 -110 -52 -32 -57 69 -4 155 49 97 60 -13 2 -42
1 -65 -3z"/>
<path d="M5115 4064 c-78 -54 -306 -174 -332 -174 -7 0 -13 -4 -13 -8 0 -5 12
-7 28 -6 15 2 79 8 142 14 137 13 244 36 261 56 9 12 7 14 -15 14 -35 0 -66
17 -66 36 0 9 23 25 56 40 54 24 56 25 39 44 -9 10 -14 24 -10 29 13 22 -13 9
-90 -45z"/>
<path d="M4334 4008 c-23 -24 -80 -89 -128 -145 -96 -114 -133 -146 -190 -165
-57 -19 -40 -33 42 -33 62 0 76 -4 88 -20 12 -17 17 -18 35 -7 82 52 102 57
204 55 55 -1 115 0 133 3 45 7 41 31 -5 40 -21 4 -49 11 -62 16 l-24 9 28 29
c42 44 18 45 -119 10 -65 -17 -120 -29 -122 -27 -2 2 30 53 72 113 83 120 109
164 96 164 -4 0 -26 -19 -48 -42z"/>
<path d="M5591 4011 c-45 -12 -35 -29 21 -36 52 -6 194 7 206 20 4 3 0 10 -8
15 -17 11 -182 12 -219 1z"/>
<path d="M5860 4010 c-26 -18 9 -30 85 -30 80 0 110 11 77 29 -26 14 -142 14
-162 1z"/>
<path d="M6111 4006 c-20 -23 18 -36 105 -36 87 0 88 10 5 34 -67 20 -95 20
-110 2z"/>
<path d="M5305 3980 c-95 -13 -75 -38 32 -39 66 -1 122 14 107 28 -12 12 -89
17 -139 11z"/>
<path d="M6386 3974 c-4 -9 -4 -19 -1 -23 8 -7 38 12 43 27 6 19 -35 14 -42
-4z"/>
<path d="M6470 3955 c0 -2 18 -14 40 -25 62 -31 93 -23 52 13 -16 15 -92 25
-92 12z"/>
<path d="M4573 3849 c-23 -11 -48 -28 -55 -36 -12 -15 -8 -16 33 -10 63 9 152
39 157 55 6 21 -87 15 -135 -9z"/>
<path d="M4988 3845 c-16 -9 -28 -22 -28 -30 0 -12 18 -15 94 -15 145 0 242
-16 305 -52 87 -48 244 -109 256 -97 17 17 -27 46 -160 104 -210 92 -229 98
-340 102 -77 3 -106 0 -127 -12z"/>
<path d="M4580 3712 c0 -5 11 -17 25 -26 35 -23 198 -68 232 -64 l28 3 -35 23
c-61 39 -250 88 -250 64z"/>
<path d="M5650 3626 c0 -16 94 -66 124 -66 18 0 18 2 -5 26 -44 47 -119 72
-119 40z"/>
<path d="M4895 3601 c-7 -12 31 -25 46 -15 8 4 7 9 -2 15 -18 11 -36 11 -44 0z"/>
<path d="M5000 3571 c0 -14 76 -71 95 -71 22 0 11 16 -37 51 -42 30 -58 36
-58 20z"/>
<path d="M3857 3543 c-11 -10 -8 -41 5 -49 14 -9 38 23 31 42 -5 15 -25 19
-36 7z"/>
<path d="M5830 3540 c0 -5 16 -25 35 -46 26 -28 38 -35 47 -26 8 8 8 15 -1 26
-17 21 -81 57 -81 46z"/>
<path d="M3973 3495 c35 -31 49 -32 45 -2 -2 17 -10 23 -38 25 l-35 2 28 -25z"/>
<path d="M4057 3503 c-19 -18 19 -48 47 -37 23 9 20 19 -9 32 -30 14 -30 14
-38 5z"/>
<path d="M5162 3478 c6 -18 86 -61 98 -53 14 9 -5 32 -41 51 -34 17 -62 18
-57 2z"/>
<path d="M4180 3461 c0 -12 95 -57 184 -87 78 -27 86 -28 86 -15 0 13 -107 63
-189 90 -72 24 -81 25 -81 12z"/>
<path d="M4670 3271 c0 -10 7 -24 15 -31 12 -10 16 -9 21 4 6 16 -11 46 -27
46 -5 0 -9 -8 -9 -19z"/>
<path d="M4158 7563 c-14 -16 -33 -40 -43 -55 -35 -56 -84 -41 -107 33 -6 21
-15 36 -19 33 -17 -10 -9 -86 12 -120 36 -59 81 -40 152 63 12 18 25 33 28 33
3 0 23 -24 43 -54 51 -74 78 -92 118 -75 35 14 75 70 84 117 9 43 -9 41 -25
-4 -8 -23 -24 -40 -45 -51 -42 -20 -70 -6 -117 56 -19 25 -39 46 -44 48 -6 2
-23 -9 -37 -24z"/>
<path d="M2829 7419 c-128 -82 -369 -356 -490 -555 -23 -37 -86 -148 -140
-246 -121 -218 -153 -266 -227 -342 -177 -180 -520 -366 -677 -366 -52 0 -60
10 -56 67 1 25 -2 43 -8 43 -15 0 -32 -66 -38 -150 l-6 -75 25 26 c19 20 37
27 85 32 74 8 178 44 305 108 134 67 225 128 325 221 46 43 89 78 94 78 20 0
19 -32 -5 -151 -13 -68 -27 -160 -31 -204 -3 -44 -8 -100 -10 -125 -8 -81 12
-13 45 149 73 364 223 709 443 1023 151 215 205 270 426 435 78 58 86 73 38
73 -23 0 -55 -13 -98 -41z"/>
<path d="M3724 7365 c-10 -26 6 -38 27 -19 10 9 16 21 13 25 -8 14 -34 10 -40
-6z"/>
</g>
</svg>
